<?xml version="1.0" encoding="UTF-8" standalone="no"?>
<!DOCTYPE svg PUBLIC "-//W3C//DTD SVG 1.1//EN" "http://www.w3.org/Graphics/SVG/1.1/DTD/svg11.dtd">
<svg width="100%" height="100%" viewBox="0 0 142 76" version="1.1" xmlns="http://www.w3.org/2000/svg" xmlns:xlink="http://www.w3.org/1999/xlink" xml:space="preserve" xmlns:serif="http://www.serif.com/" style="fill-rule:evenodd;clip-rule:evenodd;stroke-linejoin:round;stroke-miterlimit:2;">
    <g transform="matrix(1,0,0,1,1.45714e-06,0)">
        <rect x="0" y="0" width="141.591" height="75.342" style="fill-opacity:0;"/>
        <path d="M70.816,66.797C80.435,66.797 91.665,69.727 100.015,74.072C102.261,75.293 104.751,74.805 106.216,72.9L139.468,30.566C142.74,26.367 142.202,21.924 138.052,18.652C124.429,8.154 98.306,0 70.816,0C43.326,0 17.202,8.154 3.531,18.652C-0.62,21.924 -1.157,26.367 2.163,30.566L35.415,72.9C36.88,74.805 39.322,75.293 41.568,74.072C49.917,69.727 61.197,66.797 70.816,66.797ZM70.816,58.935C61.88,58.935 51.577,61.279 41.617,65.381C40.396,65.869 39.859,65.772 38.882,64.551L9.976,27.734C9.048,26.514 9.195,25.342 10.513,24.463C27.31,13.867 48.843,7.861 70.816,7.861C92.788,7.861 114.322,13.867 131.118,24.463C132.437,25.342 132.583,26.514 131.607,27.734L102.749,64.551C101.773,65.772 101.236,65.869 100.015,65.381C90.054,61.279 79.702,58.935 70.816,58.935ZM63.833,53.125L77.749,53.125C79.409,53.125 80.777,51.807 80.777,50.098C80.777,48.486 79.458,47.217 77.749,47.217L74.038,47.217L74.038,30.371C74.038,28.32 72.915,26.807 70.865,26.807L64.419,26.807C62.759,26.807 61.392,28.027 61.392,29.688C61.392,31.445 62.759,32.715 64.419,32.715L67.495,32.715L67.495,47.217L63.833,47.217C62.173,47.217 60.806,48.438 60.806,50.098C60.806,51.856 62.173,53.125 63.833,53.125ZM69.546,22.217C72.329,22.217 74.527,19.922 74.527,17.188C74.527,14.404 72.281,12.158 69.546,12.158C66.763,12.158 64.468,14.404 64.468,17.188C64.468,19.922 66.763,22.217 69.546,22.217Z" style="fill:white;fill-opacity:0.85;fill-rule:nonzero;"/>
    </g>
</svg>
