<?xml version="1.0" encoding="iso-8859-1"?>
<!-- Generator: Adobe Illustrator 19.0.0, SVG Export Plug-In . SVG Version: 6.00 Build 0)  -->
<svg version="1.1" id="Layer_1" xmlns="http://www.w3.org/2000/svg" xmlns:xlink="http://www.w3.org/1999/xlink" x="0px" y="0px"
	 viewBox="0 0 491.52 491.52" style="enable-background:new 0 0 491.52 491.52;" xml:space="preserve">
<g>
	<g>
		<path d="M397.7,235.16c-2.86-3.45-7.63-4.62-11.77-2.94L98.51,350.095c-3.55,1.46-5.99,4.79-6.31,8.62
			c-0.32,3.835,1.53,7.52,4.79,9.55l46.37,28.823v84.192c0,4.305,2.7,8.155,6.74,9.625c1.15,0.415,2.33,0.615,3.5,0.615
			c2.97,0,5.87-1.295,7.85-3.67l46.382-55.423l42.998,24.623c1.6,0.92,3.35,1.355,5.08,1.355c3.37,0,6.65-1.655,8.6-4.67
			l133.9-206.47C400.85,243.51,400.56,238.605,397.7,235.16z M163.84,453.09v-54.93l71.51-30.515L163.84,453.09z M252.6,434.465
			l-31.417-17.992l57.277-68.443c3.04-3.63,3.19-8.87,0.37-12.675c-2.83-3.805-7.9-5.17-12.24-3.315l-112.111,47.844l-29.669-18.439
			l238.6-97.855L252.6,434.465z"/>
	</g>
</g>
<g>
	<g>
		<path d="M421.78,158.065c4.39-14.12,6.17-28.81,5.29-43.81C423.43,51.76,370.49,0.505,309.06,0.005c-0.31,0-0.63-0.005-0.95-0.005
			c-49.64,0-93.88,31.865-111.3,78.135c-18.18-15.07-41.61-22.44-65.57-20.075c-34.03,3.375-63.69,27.27-75.57,60.88
			c-5.28,14.945-6.57,30.305-3.88,45.785C20.48,180.12,0,212.77,0,248.615c0,51.745,38.76,89.305,92.16,89.305h10.24v-20.48H92.16
			c-42.2,0-71.68-28.3-71.68-68.825c0-30.4,18.77-57.83,46.71-68.255l8.74-3.265l-2.43-9c-3.88-14.335-3.38-28.575,1.49-42.335
			c9.23-26.155,32.11-44.725,58.27-47.32c23.05-2.325,45.77,7.29,60.47,25.63l13.48,16.82l4.52-21.08
			c9.88-46.085,50.34-79.33,96.38-79.33c0.26,0,0.53,0,0.79,0.005c50.86,0.415,94.7,43.015,97.73,94.965
			c0.94,16.12-1.79,31.795-8.12,46.595l-5.49,12.855l13.91,1.36c36.55,3.58,64.11,34.685,64.11,72.355
			c0,40.525-29.48,68.825-71.68,68.825h-20.48v20.48h20.48c53.4,0,92.16-37.56,92.16-89.305
			C491.52,204.855,462.33,168,421.78,158.065z"/>
	</g>
</g>
<g>
</g>
<g>
</g>
<g>
</g>
<g>
</g>
<g>
</g>
<g>
</g>
<g>
</g>
<g>
</g>
<g>
</g>
<g>
</g>
<g>
</g>
<g>
</g>
<g>
</g>
<g>
</g>
<g>
</g>
</svg>
