<?xml version="1.0" encoding="iso-8859-1"?>
<!-- Generator: Adobe Illustrator 19.0.0, SVG Export Plug-In . SVG Version: 6.00 Build 0)  -->
<svg version="1.1" id="Capa_1" xmlns="http://www.w3.org/2000/svg" xmlns:xlink="http://www.w3.org/1999/xlink" x="0px" y="0px"
	 viewBox="0 0 512 512" style="enable-background:new 0 0 512 512;" xml:space="preserve">
<g>
	<g>
		<path d="M437.02,74.98C388.667,26.629,324.38,0,256,0S123.333,26.629,74.98,74.98C26.629,123.333,0,187.62,0,256
			s26.629,132.667,74.98,181.02C123.333,485.371,187.62,512,256,512s132.667-26.629,181.02-74.98
			C485.371,388.667,512,324.38,512,256S485.371,123.333,437.02,74.98z M415.806,415.806C373.12,458.492,316.367,482,256,482
			s-117.12-23.508-159.806-66.194C53.508,373.12,30,316.367,30,256S53.508,138.88,96.194,96.194C138.88,53.508,195.633,30,256,30
			s117.12,23.508,159.806,66.194C458.492,138.88,482,195.633,482,256S458.492,373.12,415.806,415.806z"/>
	</g>
</g>
<g>
	<g>
		<path d="M390.547,236.147c-8.687-59.131-55.563-106.008-114.694-114.694L256,42.309l-19.853,79.144
			c-59.131,8.687-106.008,55.563-114.694,114.694L42.309,256l79.144,19.853c8.687,59.131,55.563,106.008,114.694,114.694
			L256,469.691l19.853-79.144c59.131-8.687,106.007-55.563,114.694-114.694L469.691,256L390.547,236.147z M228.047,153.748
			l-14.9,59.399l-59.399,14.9C163.606,192.028,192.028,163.606,228.047,153.748z M153.748,283.953l59.399,14.9l14.9,59.399
			C192.028,348.394,163.606,319.972,153.748,283.953z M274.126,274.126L256,346.388l-18.126-72.262L165.612,256l72.262-18.126
			L256,165.612l18.126,72.262L346.388,256L274.126,274.126z M283.953,358.252l14.9-59.399l59.399-14.9
			C348.394,319.972,319.972,348.394,283.953,358.252z M298.853,213.147l-14.9-59.399c36.019,9.858,64.441,38.28,74.299,74.299
			L298.853,213.147z"/>
	</g>
</g>
<g>
	<g>
		<circle cx="165.5" cy="99.25" r="15"/>
	</g>
</g>
<g>
	<g>
		<circle cx="99.25" cy="165.5" r="15"/>
	</g>
</g>
<g>
	<g>
		<circle cx="99.25" cy="346.5" r="15"/>
	</g>
</g>
<g>
	<g>
		<circle cx="165.5" cy="412.75" r="15"/>
	</g>
</g>
<g>
	<g>
		<circle cx="346.5" cy="412.75" r="15"/>
	</g>
</g>
<g>
	<g>
		<circle cx="412.75" cy="346.5" r="15"/>
	</g>
</g>
<g>
	<g>
		<circle cx="412.75" cy="165.5" r="15"/>
	</g>
</g>
<g>
	<g>
		<circle cx="346.5" cy="99.25" r="15"/>
	</g>
</g>
<g>
</g>
<g>
</g>
<g>
</g>
<g>
</g>
<g>
</g>
<g>
</g>
<g>
</g>
<g>
</g>
<g>
</g>
<g>
</g>
<g>
</g>
<g>
</g>
<g>
</g>
<g>
</g>
<g>
</g>
</svg>
