<?xml version="1.0" encoding="iso-8859-1"?>
<!-- Generator: Adobe Illustrator 19.0.0, SVG Export Plug-In . SVG Version: 6.00 Build 0)  -->
<svg version="1.1" id="Capa_1" xmlns="http://www.w3.org/2000/svg" xmlns:xlink="http://www.w3.org/1999/xlink" x="0px" y="0px"
	 viewBox="0 0 512 512" style="enable-background:new 0 0 512 512;" xml:space="preserve">
<g>
	<g>
		<g>
			<path d="M256,96c-88.366,0-160,71.634-160,160s71.634,160,160,160s160-71.634,160-160C415.903,167.675,344.325,96.097,256,96z
				 M272,129.104c22.755,2.851,44.316,11.801,62.4,25.904l-46.048,46.064c-5.101-3.03-10.607-5.319-16.352-6.8V129.104z
				 M240,129.104v65.168c-5.729,1.485-11.218,3.775-16.304,6.8L177.6,155.008C195.684,140.905,217.245,131.955,240,129.104z
				 M155.008,177.6l46.064,46.064c-3.028,5.096-5.318,10.596-6.8,16.336h-65.168C131.958,217.246,140.908,195.686,155.008,177.6z
				 M129.104,272h65.168c1.485,5.729,3.775,11.218,6.8,16.304L155.008,334.4C140.908,316.314,131.958,294.754,129.104,272z
				 M240,382.896c-22.755-2.851-44.316-11.802-62.4-25.904l46.048-46.064c5.101,3.03,10.607,5.319,16.352,6.8V382.896z M224,256
				c0-17.673,14.327-32,32-32c17.673,0,32,14.327,32,32s-14.327,32-32,32C238.327,288,224,273.673,224,256z M272,382.896v-65.168
				c5.729-1.485,11.218-3.775,16.304-6.8l46.096,46.064C316.316,371.094,294.755,380.045,272,382.896z M356.992,334.4
				l-46.064-46.064c3.028-5.096,5.318-10.596,6.8-16.336h65.168C380.042,294.754,371.092,316.314,356.992,334.4z M317.728,240
				c-1.485-5.729-3.775-11.218-6.8-16.304l46.064-46.096c14.1,18.086,23.05,39.646,25.904,62.4H317.728z"/>
			<path d="M479.36,240c-1.311-18.205-4.836-36.183-10.496-53.536l-30.4,9.936c32.981,100.714-21.928,209.095-122.643,242.076
				c-90.022,29.479-188.086-11.143-230.893-95.644L56.4,357.328c8.28,16.234,18.487,31.41,30.4,45.2l-23.136,23.168l22.64,22.64
				l23.104-23.12c36.475,31.794,82.323,50.826,130.592,54.208V512h32v-32.816c48.205-3.4,93.997-22.387,130.464-54.096
				l23.232,23.248l22.64-22.64l-23.248-23.232c31.709-36.467,50.696-82.259,54.096-130.464H512v-32H479.36z"/>
			<path d="M64,256C63.956,150.014,149.838,64.06,255.824,64.016c72.335-0.03,138.542,40.617,171.248,105.136l28.528-14.496
				c-8.28-16.229-18.487-31.4-30.4-45.184l23.184-23.168l-22.688-22.64l-23.104,23.12C366.117,54.99,320.269,35.958,272,32.576V0
				h-32v32.816c-48.205,3.4-93.997,22.387-130.464,54.096L86.304,63.664l-22.64,22.64l23.248,23.232
				C55.203,146.003,36.216,191.795,32.816,240H0v32h32.64c1.332,18.208,4.878,36.186,10.56,53.536l30.4-9.936
				C67.277,296.364,64.037,276.249,64,256z"/>
		</g>
	</g>
</g>
<g>
</g>
<g>
</g>
<g>
</g>
<g>
</g>
<g>
</g>
<g>
</g>
<g>
</g>
<g>
</g>
<g>
</g>
<g>
</g>
<g>
</g>
<g>
</g>
<g>
</g>
<g>
</g>
<g>
</g>
</svg>
