<?xml version="1.0" encoding="iso-8859-1"?>
<!-- Generator: Adobe Illustrator 19.0.0, SVG Export Plug-In . SVG Version: 6.00 Build 0)  -->
<svg version="1.1" id="Capa_1" xmlns="http://www.w3.org/2000/svg" xmlns:xlink="http://www.w3.org/1999/xlink" x="0px" y="0px"
	 viewBox="0 0 409.6 409.6" style="enable-background:new 0 0 409.6 409.6;" xml:space="preserve">
<path style="fill:#2F4859;" d="M315.117,345.083c18.517,0,32.577-17.035,28.727-35.147
	c-16.162-76.034-83.692-133.074-164.544-133.074S30.919,233.901,14.757,309.936c-3.85,18.113,10.21,35.147,28.727,35.147H315.117z"
	/>
<path style="fill:#3A556A;" d="M14.757,309.936c16.162-76.034,83.692-133.074,164.544-133.074v168.221H43.484
	C24.967,345.083,10.907,328.048,14.757,309.936z"/>
<path style="fill:#44C4A1;" d="M392.148,273.945c-0.22-1.745-1.53-3.178-2.955-3.2l-25.211-0.391
	c-2.841-7.276-6.642-14.003-11.273-20.051l11.385-21.958c0.656-1.265,0.015-3.096-1.418-4.118l-21.438-15.289
	c-1.433-1.023-3.374-1.033-4.356,0l-15.576,16.365c-7.6-3.467-15.763-5.793-24.281-6.816l-6.165-22.633
	c-0.375-1.375-2.087-2.287-3.834-2.069l-26.126,3.277c-1.746,0.219-3.18,1.526-3.204,2.952l-0.385,23.453
	c-7.603,2.942-14.604,6.94-20.867,11.825l-20.252-11.389c-1.242-0.699-3.095-0.121-4.165,1.276l-16.009,20.905
	c-1.07,1.397-1.146,3.336-0.148,4.354l15.949,16.248c-3.334,7.425-5.582,15.378-6.595,23.672l-23.87,6.875
	c-1.37,0.395-2.258,2.12-2.014,3.864l3.655,26.075c0.244,1.743,1.573,3.157,2.998,3.161l24.25,0.046
	c2.942,7.561,6.931,14.525,11.798,20.757l-13.069,21.722c-0.735,1.221-0.21,3.089,1.155,4.2l20.428,16.615
	c1.365,1.111,3.301,1.243,4.347,0.275l19.302-17.866c7.129,3.111,14.733,5.219,22.648,6.208l6.867,25.208
	c0.375,1.375,2.087,2.288,3.833,2.069l26.126-3.277c1.746-0.218,3.18-1.526,3.204-2.951l0.429-26.124
	c7.41-2.907,14.243-6.816,20.373-11.577l20.667,12.655c1.215,0.745,3.088,0.235,4.209-1.122l16.774-20.296
	c1.121-1.356,1.269-3.292,0.309-4.345l-17.055-18.718c3.241-7.303,5.433-15.111,6.437-23.249l24.359-6.658
	c1.375-0.376,2.286-2.09,2.065-3.836L392.148,273.945z"/>
<g transform="matrix(0.99223 -0.12445 0.12445 0.99223 -8.03 8.757)">
	
		<ellipse transform="matrix(-0.9922 -0.1244 0.1244 -0.9922 470.5902 681.5917)" style="fill:#31978C;" cx="256.583" cy="326.098" rx="54.676" ry="54.676"/>
	
		<ellipse transform="matrix(-0.9922 -0.1244 0.1244 -0.9922 470.5902 681.5917)" style="fill:#EBF0F3;" cx="256.583" cy="326.098" rx="32.287" ry="32.287"/>
</g>
<path style="fill:#3A556A;" d="M259.77,80.469c0,44.442-36.027,99.39-80.469,99.39s-80.469-54.948-80.469-99.39S134.859,0,179.301,0
	S259.77,36.027,259.77,80.469z"/>
<path style="fill:#2F4859;" d="M179.301,179.859c44.442,0,80.469-54.948,80.469-99.39S223.742,0,179.301,0V179.859z"/>
<g>
</g>
<g>
</g>
<g>
</g>
<g>
</g>
<g>
</g>
<g>
</g>
<g>
</g>
<g>
</g>
<g>
</g>
<g>
</g>
<g>
</g>
<g>
</g>
<g>
</g>
<g>
</g>
<g>
</g>
</svg>
