<?xml version="1.0" encoding="iso-8859-1"?>
<!-- Generator: Adobe Illustrator 19.0.0, SVG Export Plug-In . SVG Version: 6.00 Build 0)  -->
<svg version="1.1" id="Capa_1" xmlns="http://www.w3.org/2000/svg" xmlns:xlink="http://www.w3.org/1999/xlink" x="0px" y="0px"
	 viewBox="0 0 468.293 468.293" style="enable-background:new 0 0 468.293 468.293;" xml:space="preserve">
<polygon style="fill:#D5D6DB;" points="318.439,437.698 149.854,437.698 180.449,380.254 287.844,380.254 "/>
<path style="fill:#EBF0F3;" d="M468.293,323.434H0V28.722c0-6.868,5.62-12.488,12.488-12.488h443.317
	c6.868,0,12.488,5.62,12.488,12.488V323.434z"/>
<path style="fill:#E1E6E9;" d="M468.293,320.312H0v52.449c0,6.868,5.62,12.488,12.488,12.488h443.317
	c6.868,0,12.488-5.62,12.488-12.488V320.312z"/>
<rect x="18.107" y="34.341" style="fill:#27A2DB;" width="432.078" height="267.863"/>
<path style="fill:#64798A;" d="M249.756,334.673h-30.595c-4.995,0-8.741,3.746-8.741,8.741v18.107c0,4.995,3.746,8.741,8.741,8.741
	h30.595c4.995,0,8.741-3.746,8.741-8.741v-18.107C258.498,338.419,254.751,334.673,249.756,334.673z"/>
<path style="fill:#D5D6DB;" d="M127.376,433.327h214.166c4.995,0,9.366,4.371,9.366,9.366l0,0c0,4.995-4.371,9.366-9.366,9.366
	H127.376c-4.995,0-9.366-4.371-9.366-9.366l0,0C117.385,437.698,121.756,433.327,127.376,433.327z"/>
<path style="fill:#E56353;" d="M70.556,101.776c-36.215,36.839-36.215,96.156,0,132.371l66.185-66.185L70.556,101.776z"/>
<g>
	<path style="fill:#FCD462;" d="M203.551,101.776c-36.839-36.839-96.156-36.839-132.371,0l66.185,66.185L203.551,101.776z"/>
	<path style="fill:#FCD462;" d="M70.556,234.146c36.839,36.839,96.156,36.839,132.371,0l-66.185-66.185L70.556,234.146z"/>
</g>
<path style="fill:#44C4A1;" d="M227.902,101.776l-66.81,66.185l66.81,66.185C264.117,197.932,264.117,138.615,227.902,101.776z"/>
<polygon style="fill:#E1E6E9;" points="318.439,74.302 287.844,105.522 287.844,254.127 425.21,254.127 425.21,74.302 "/>
<g>
	<polygon style="fill:#D5D6DB;" points="318.439,74.302 287.844,105.522 318.439,105.522 	"/>
	<rect x="306.576" y="222.907" style="fill:#D5D6DB;" width="99.902" height="9.366"/>
	<rect x="306.576" y="181.073" style="fill:#D5D6DB;" width="99.902" height="9.366"/>
	<rect x="306.576" y="138.615" style="fill:#D5D6DB;" width="99.902" height="9.366"/>
	<rect x="337.171" y="96.156" style="fill:#D5D6DB;" width="68.683" height="9.366"/>
</g>
<g>
</g>
<g>
</g>
<g>
</g>
<g>
</g>
<g>
</g>
<g>
</g>
<g>
</g>
<g>
</g>
<g>
</g>
<g>
</g>
<g>
</g>
<g>
</g>
<g>
</g>
<g>
</g>
<g>
</g>
</svg>
