<?xml version="1.0" encoding="iso-8859-1"?>
<!-- Generator: Adobe Illustrator 19.0.0, SVG Export Plug-In . SVG Version: 6.00 Build 0)  -->
<svg version="1.1" id="Layer_1" xmlns="http://www.w3.org/2000/svg" xmlns:xlink="http://www.w3.org/1999/xlink" x="0px" y="0px"
	 viewBox="0 0 481.882 481.882" style="enable-background:new 0 0 481.882 481.882;" xml:space="preserve">
<path style="fill:#64798A;" d="M432.188,289.732c4.216-15.661,6.024-31.925,6.024-48.791s-2.409-33.129-6.024-48.791l30.118-27.106
	c4.819-4.216,6.024-11.445,3.012-17.468l-31.322-54.212c-3.012-5.421-10.24-8.433-16.263-6.024l-38.551,12.649
	c-23.492-22.889-52.405-39.755-84.932-48.791l-7.831-40.358C285.214,4.216,279.191,0,273.167,0H209.92
	c-6.626,0-12.047,4.819-13.252,10.842l-8.433,39.755c-32.527,9.035-61.44,25.901-84.932,48.791L64.753,86.739
	c-6.024-1.807-13.252,0.602-16.264,6.024l-31.925,54.814c-3.012,5.421-1.807,12.649,3.012,17.468l30.118,27.106
	c-4.216,15.661-6.024,31.925-6.024,48.791s2.409,33.129,6.024,48.791l-30.118,27.106c-4.819,4.216-6.024,11.445-3.012,17.468
	l31.322,54.814c3.012,5.421,10.24,8.433,16.264,6.024l38.551-12.649c23.492,22.889,52.405,39.755,84.932,48.791l8.433,39.755
	c1.205,6.626,7.228,10.842,13.252,10.842h63.247c6.626,0,12.047-4.819,13.252-10.842l8.433-39.755
	c32.527-9.035,61.44-25.901,84.932-48.791l38.551,12.649c6.024,1.807,13.252-0.602,16.263-6.024l31.322-54.814
	c3.012-5.421,1.807-12.649-3.012-17.468L432.188,289.732z M241.242,389.722c-81.92,0-148.781-66.259-148.781-148.781
	S158.72,92.16,241.242,92.16c81.92,0,148.781,66.259,148.781,148.781S323.162,389.722,241.242,389.722z"/>
<circle style="fill:#27A2DB;" cx="241.242" cy="240.941" r="148.781"/>
<g>
	<path style="fill:#FCD462;" d="M241.242,398.155c-86.739,0-157.214-70.475-157.214-157.214S154.504,83.727,241.242,83.727
		s157.214,70.475,157.214,157.214S327.981,398.155,241.242,398.155z M241.242,101.195c-77.101,0-139.746,62.645-139.746,139.746
		s62.645,139.746,139.746,139.746s139.746-62.645,139.746-139.746S318.344,101.195,241.242,101.195z"/>
	<path style="fill:#FCD462;" d="M241.242,398.155c-47.586,0-84.932-69.271-84.932-157.214s37.346-157.214,84.932-157.214
		s84.932,69.271,84.932,157.214S288.828,398.155,241.242,398.155z M241.242,101.195c-36.744,0-67.464,63.849-67.464,139.746
		s30.72,139.746,67.464,139.746c36.743,0,67.464-63.849,67.464-139.746S277.986,101.195,241.242,101.195z"/>
	<rect x="232.207" y="92.16" style="fill:#FCD462;" width="17.468" height="296.96"/>
	<rect x="92.461" y="231.906" style="fill:#FCD462;" width="296.96" height="17.468"/>
	<path style="fill:#FCD462;" d="M241.242,184.922c-42.165,0-84.329-6.024-125.289-18.673l5.421-16.866
		c78.306,24.094,161.431,24.094,240.339,0l5.421,16.866C325.572,178.296,283.407,184.922,241.242,184.922z"/>
	<path style="fill:#FCD462;" d="M361.713,333.101c-78.306-24.094-161.431-24.094-240.339,0l-5.421-16.866
		c81.92-25.299,168.659-25.299,250.579,0L361.713,333.101z"/>
</g>
<g>
</g>
<g>
</g>
<g>
</g>
<g>
</g>
<g>
</g>
<g>
</g>
<g>
</g>
<g>
</g>
<g>
</g>
<g>
</g>
<g>
</g>
<g>
</g>
<g>
</g>
<g>
</g>
<g>
</g>
</svg>
