<svg enable-background="new 0 0 100 100" height="512" viewBox="0 0 100 100" width="512" xmlns="http://www.w3.org/2000/svg"><path d="m87.8293152 44.4291801c-.4336624-2.9685974-1.2047501-5.8117752-2.2842102-8.5104752l6.2165527-3.5853271-5.5804062-9.6573448-6.2165604 3.5853271c-1.8312531-2.3033905-3.9130402-4.3947716-6.2261963-6.2261429l3.5853806-6.2164955-9.657341-5.5708208-3.5756836 6.2068472c-2.7082863-1.0699272-5.5515213-1.8504305-8.5104103-2.2840948v-7.1706533h-11.160881v7.1706533c-2.958889.4336643-5.802124 1.2141676-8.5104141 2.2840948l-3.5756798-6.2068471-9.6573429 5.5708208 3.5853844 6.2164955c-2.3131561 1.8313713-4.394949 3.9227524-6.226202 6.2261429l-6.2165537-3.5853271-5.58041 9.6573448 6.2165546 3.5853271c-1.0795164 2.6987-1.8505487 5.5418777-2.2842722 8.5104752h-7.1706534v11.1512871h7.1706533c.4337234 2.9587135 1.2047558 5.8021278 2.2842722 8.5104752l-6.2165546 3.575676v.0094147l5.58041 9.647934v.0094147l6.2165537-3.5949783c1.8312531 2.3130417 3.9130459 4.3950119 6.226202 6.2261429l-3.5853844 6.2167282 9.6573429 5.5804749 3.5756798-6.2073212c2.7082901 1.0701599 5.5515251 1.8410187 8.5104141 2.2749176v7.170654h11.1512337.0096474v-7.1706543c2.8528252-.4146042 5.5900574-1.1468735 8.2116356-2.1591492l-5.0214462-5.0213852-3.4214935-3.4213181-4.6359024-4.6359634c-16.085907.5011979-28.5383091-15.8161888-21.1169987-32.6921882 2.0143776-4.5780716 5.7153568-8.2888165 10.3030758-10.3032532 16.8955307-7.4309006 33.222393 5.069622 32.6826591 21.1747665l13.0595474 13.0598412c1.0312805-2.6311684 1.7637787-5.387989 2.1877975-8.2502289h7.1707153v-11.1512871z" fill="#41a28d"/><path d="m49.9999695 18.1172543c-17.579792 0-31.8826275 14.3027172-31.8826275 31.8827457 0 17.5795593 14.3028355 31.8827438 31.8826275 31.8827438 3.0360107 0 5.975605-.4244843 8.7706604-1.2339325l-3.4214935-3.4213181c-1.7348976.35672-3.5179138.5298996-5.3491669.5298996-15.3051682 0-27.7575722-12.4522858-27.7575722-27.7573929 0-15.3053474 12.452404-27.7576313 27.7575722-27.7576313 15.3052292 0 27.7576294 12.4522839 27.7576294 27.7576313 0 1.8504295-.1831207 3.6528587-.5397263 5.4068146l3.4214935 3.4217911c.8095704-2.8048248 1.2432938-5.763771 1.2432938-8.8286056 0-17.5800285-14.3028335-31.8827457-31.8826904-31.8827457z" fill="#b0b1b5"/><path d="m92.3274078 80.0610199c-3.3829651 4.7611389-7.546608 8.924614-12.3078079 12.2979279l-29.8972511-29.8972512 12.3078079-12.3075714z" fill="#344e5c"/><path d="m45.3230705 33.0533218 8.9333038 8.9333038-1.9370003 10.3659935-10.3659897 1.9370003-8.9333076-8.9333076c-1.5227909 5.7665367-.0282173 12.1645584 4.493042 16.6858177 6.7643776 6.7643738 17.7314835 6.7643433 24.4957962.0000305s6.7643471-17.7314224-.0000267-24.4957962c-4.5212593-4.5212593-10.919281-6.0158348-16.6858177-4.493042z" fill="#304651"/></svg>