<?xml version="1.0" encoding="iso-8859-1"?>
<!-- Generator: Adobe Illustrator 19.0.0, SVG Export Plug-In . SVG Version: 6.00 Build 0)  -->
<svg version="1.1" id="Layer_1" xmlns="http://www.w3.org/2000/svg" xmlns:xlink="http://www.w3.org/1999/xlink" x="0px" y="0px"
	 viewBox="0 0 473.931 473.931" style="enable-background:new 0 0 473.931 473.931;" xml:space="preserve">
<circle style="fill:#B3DCE2;" cx="236.966" cy="236.966" r="236.966"/>
<rect x="66.697" y="346.038" style="fill:#E79E2D;" width="285.085" height="16.909"/>
<polygon style="fill:#F2BE3E;" points="351.77,346.584 66.697,346.584 117.431,297.212 402.497,297.212 "/>
<polygon style="fill:#E79E2D;" points="351.77,346.584 351.621,362.891 402.348,313.515 402.497,297.212 "/>
<polygon style="fill:#F06668;" points="169.116,137.611 169.116,127.703 166.617,127.71 107.972,157.292 123.628,157.289 
	162.879,137.611 "/>
<polygon style="fill:#FFFFFF;" points="207.118,137.596 163.096,137.596 123.628,157.363 170.149,157.363 "/>
<polygon style="fill:#F06668;" points="227.245,126.273 170.452,157.289 170.456,334.742 227.248,297.99 "/>
<g>
	<rect x="107.396" y="157.304" style="fill:#F6A2A3;" width="63.06" height="177.434"/>
	<polygon style="fill:#F6A2A3;" points="227.439,126.273 225.692,126.4 165.378,157.289 170.426,157.24 	"/>
	<polygon style="fill:#F6A2A3;" points="166.617,127.71 107.396,157.289 112.447,157.292 169.068,127.703 	"/>
</g>
<g>
	<polygon style="fill:#E58E8F;" points="168.05,137.551 169.128,137.551 169.128,127.703 167.994,128.327 	"/>
	<polygon style="fill:#E58E8F;" points="168.05,137.551 169.128,137.551 169.128,127.703 167.994,128.327 	"/>
	<polygon style="fill:#E58E8F;" points="168.05,137.551 169.128,137.551 169.128,127.703 167.994,128.327 	"/>
</g>
<polygon style="fill:#D88080;" points="169.116,127.703 111.448,157.292 114.711,157.292 167.964,129.903 "/>
<g>
	<polygon style="fill:#DDDDDC;" points="133.966,157.307 130.834,157.307 165.711,137.715 169.292,137.719 	"/>
	<polygon style="fill:#DDDDDC;" points="146.419,157.307 143.291,157.307 178.171,137.715 181.752,137.719 	"/>
	<polygon style="fill:#DDDDDC;" points="159.332,157.307 156.204,157.307 191.077,137.715 194.658,137.719 	"/>
</g>
<rect x="112.44" y="165.461" style="fill:#F06668;" width="52.998" height="32.617"/>
<rect x="116.818" y="169.539" style="fill:#FFFFFF;" width="44.273" height="24.464"/>
<circle style="fill:#F06668;" cx="137.813" cy="232.064" r="16.303"/>
<circle style="fill:#F6A2A3;" cx="137.813" cy="232.064" r="13.893"/>
<circle style="fill:#F06668;" cx="137.813" cy="288.228" r="16.303"/>
<circle style="fill:#F6A2A3;" cx="137.813" cy="288.228" r="13.893"/>
<polygon style="fill:#357180;" points="248.838,97.746 248.842,87.842 246.343,87.845 187.694,117.435 203.353,117.428 
	242.605,97.746 "/>
<polygon style="fill:#FFFFFF;" points="286.843,97.739 242.818,97.739 203.353,117.503 249.867,117.506 "/>
<polygon style="fill:#357180;" points="306.97,86.412 250.17,117.428 250.174,331.12 306.97,294.361 "/>
<g>
	<rect x="187.125" y="117.428" style="fill:#67B8CB;" width="63.056" height="213.692"/>
	<polygon style="fill:#67B8CB;" points="307.161,86.412 305.414,86.539 245.1,117.428 250.152,117.379 	"/>
	<polygon style="fill:#67B8CB;" points="246.343,87.845 187.122,117.428 192.169,117.435 248.79,87.842 	"/>
</g>
<g>
	<polygon style="fill:#E58E8F;" points="247.776,97.69 248.85,97.69 248.85,87.842 247.716,88.463 	"/>
	<polygon style="fill:#E58E8F;" points="247.776,97.69 248.85,97.69 248.85,87.842 247.716,88.463 	"/>
</g>
<polygon style="fill:#67B7C3;" points="247.776,97.69 248.85,97.69 248.85,87.842 247.716,88.463 "/>
<polygon style="fill:#43A0AA;" points="248.842,87.842 191.17,117.435 194.433,117.435 247.682,90.038 "/>
<g>
	<polygon style="fill:#DDDDDC;" points="213.684,117.446 210.556,117.446 245.437,97.851 249.018,97.858 	"/>
	<polygon style="fill:#DDDDDC;" points="226.141,117.446 223.016,117.446 257.897,97.851 261.478,97.858 	"/>
	<polygon style="fill:#DDDDDC;" points="239.054,117.446 235.929,117.446 270.802,97.851 274.383,97.858 	"/>
</g>
<rect x="192.177" y="125.603" style="fill:#357180;" width="52.998" height="32.613"/>
<rect x="196.517" y="129.686" style="fill:#FFFFFF;" width="44.28" height="24.456"/>
<g>
	<circle style="fill:#357180;" cx="217.546" cy="205.497" r="16.307"/>
	<circle style="fill:#357180;" cx="217.546" cy="274.346" r="16.307"/>
</g>
<polygon style="opacity:0.15;enable-background:new    ;" points="377.888,297.283 346.633,329.043 292.224,330.88 324.01,297.006 
	"/>
<polygon style="fill:#2F8442;" points="302.776,151.556 301.313,144.335 299.487,144.709 261.085,174.939 272.509,172.63 
	298.226,152.48 "/>
<polygon style="fill:#FFFFFF;" points="330.487,145.936 298.379,152.439 272.516,172.678 306.443,165.812 "/>
<polygon style="fill:#2F8442;" points="343.494,134.703 306.656,165.711 338.218,321.563 374.21,286.372 "/>
<g>
	
		<rect x="219.942" y="224.815" transform="matrix(0.1985 0.9801 -0.9801 0.1985 483.3493 -94.4956)" style="fill:#6CC077;" width="159.017" height="46.929"/>
	<polygon style="fill:#6CC077;" points="343.632,134.677 342.382,135.025 302.952,166.463 306.626,165.678 	"/>
	<polygon style="fill:#6CC077;" points="299.487,144.709 260.662,175.025 264.348,174.28 301.272,144.338 	"/>
</g>
<g>
	<polygon style="fill:#E58E8F;" points="301.99,151.672 302.776,151.511 301.316,144.331 300.583,144.948 	"/>
	<polygon style="fill:#E58E8F;" points="301.99,151.672 302.776,151.511 301.316,144.331 300.583,144.948 	"/>
</g>
<polygon style="fill:#6CC077;" points="301.99,151.672 302.776,151.511 301.316,144.331 300.583,144.948 "/>
<polygon style="fill:#48B15A;" points="301.313,144.335 263.622,174.433 266.005,173.947 300.796,146.108 "/>
<g>
	<polygon style="fill:#DDDDDC;" points="280.045,171.114 277.762,171.578 300.31,152.136 302.918,151.609 	"/>
	<polygon style="fill:#DDDDDC;" points="289.126,169.277 286.847,169.737 309.391,150.295 312.007,149.771 	"/>
	<polygon style="fill:#DDDDDC;" points="298.544,167.369 296.265,167.829 318.809,148.394 321.417,147.859 	"/>
</g>
<rect x="267.578" y="176.078" transform="matrix(-0.9801 0.1985 -0.1985 -0.9801 606.2376 315.6509)" style="fill:#2F8442;" width="39.438" height="24.269"/>
<rect x="270.834" y="179.103" transform="matrix(-0.9801 0.1985 -0.1985 -0.9801 606.2585 315.633)" style="fill:#FFFFFF;" width="32.95" height="18.204"/>
<g>
	<circle style="fill:#2F8442;" cx="295.861" cy="234.751" r="12.135"/>
	<circle style="fill:#2F8442;" cx="306.001" cy="284.972" r="12.135"/>
</g>
<g>
</g>
<g>
</g>
<g>
</g>
<g>
</g>
<g>
</g>
<g>
</g>
<g>
</g>
<g>
</g>
<g>
</g>
<g>
</g>
<g>
</g>
<g>
</g>
<g>
</g>
<g>
</g>
<g>
</g>
</svg>
