<?xml version="1.0" encoding="iso-8859-1"?>
<!-- Generator: Adobe Illustrator 19.0.0, SVG Export Plug-In . SVG Version: 6.00 Build 0)  -->
<svg version="1.1" id="Layer_1" xmlns="http://www.w3.org/2000/svg" xmlns:xlink="http://www.w3.org/1999/xlink" x="0px" y="0px"
	 viewBox="0 0 472.615 472.615" style="enable-background:new 0 0 472.615 472.615;" xml:space="preserve">
<g>
	<g>
		<path d="M0,26.843C0,156.25,0,285.656,0,415.062c73.719-10.553,152.322,1.479,226.459,34.427V61.271
			C152.323,28.322,73.718,16.293,0,26.843z M193.084,380.721c-50.01-23.615-102.798-32.317-152.673-25.197l-2.788-19.49
			c53.664-7.682,110.356,1.616,163.866,26.88L193.084,380.721z M193.084,301.783c-50.01-23.61-102.798-32.332-152.673-25.197
			l-2.788-19.489c53.664-7.688,110.346,1.61,163.866,26.879L193.084,301.783z M193.084,222.845
			c-50.01-23.61-102.798-32.322-152.673-25.196l-2.788-19.49c53.664-7.683,110.356,1.61,163.866,26.879L193.084,222.845z
			 M193.084,143.904c-50.019-23.621-102.789-32.318-152.673-25.192l-2.788-19.49c53.664-7.673,110.346,1.606,163.866,26.875
			L193.084,143.904z"/>
	</g>
</g>
<g>
	<g>
		<path d="M399.13,23.918v81.692v67.148l-44.669-33.503l-44.668,33.503v-67.148V38.602c-21.424,5.928-42.719,13.371-63.642,22.67
			v388.219c74.137-32.95,152.743-44.982,226.465-34.429c-0.001-129.406-0.001-258.812,0-388.219
			C448.54,23.398,423.921,22.605,399.13,23.918z"/>
	</g>
</g>
<g>
</g>
<g>
</g>
<g>
</g>
<g>
</g>
<g>
</g>
<g>
</g>
<g>
</g>
<g>
</g>
<g>
</g>
<g>
</g>
<g>
</g>
<g>
</g>
<g>
</g>
<g>
</g>
<g>
</g>
</svg>
