<?xml version="1.0" encoding="iso-8859-1"?>
<!-- Generator: Adobe Illustrator 19.0.0, SVG Export Plug-In . SVG Version: 6.00 Build 0)  -->
<svg version="1.1" id="Layer_1" xmlns="http://www.w3.org/2000/svg" xmlns:xlink="http://www.w3.org/1999/xlink" x="0px" y="0px"
	 viewBox="0 0 472.615 472.615" style="enable-background:new 0 0 472.615 472.615;" xml:space="preserve">
<g>
	<g>
		<polygon style="stroke: white; fill: white;" points="316.369,9.844 316.369,115.115 421.64,115.115 		"/>
	</g>
</g>
<g>
	<g>
		<path style="stroke: white; fill: white;"  d="M236.311,243.212c-45.692,0-82.865,37.173-82.865,82.865c0,45.683,37.173,82.856,82.865,82.856
			c45.683,0,82.856-37.173,82.856-82.856C319.167,280.385,281.994,243.212,236.311,243.212z M246.157,335.923v49.327h-19.692
			v-49.327h-49.326v-19.692h49.326v-49.336h19.692v49.336h49.327v19.692H246.157z"/>
	</g>
</g>
<g>
	<g>
		<path style="stroke: white; fill: white;" d="M296.676,134.808V0H41.127v472.615h390.361V134.808H296.676z M84.504,95.923H214.35v19.692H84.504V95.923z
			 M84.504,160.038h172.308v19.692H84.504V160.038z M236.311,428.626c-56.547,0-102.558-46-102.558-102.549
			c0-56.547,46.01-102.557,102.558-102.557c56.548,0,102.549,46.01,102.549,102.557
			C338.859,382.625,292.859,428.626,236.311,428.626z"/>
	</g>
</g>
<g>
</g>
<g>
</g>
<g>
</g>
<g>
</g>
<g>
</g>
<g>
</g>
<g>
</g>
<g>
</g>
<g>
</g>
<g>
</g>
<g>
</g>
<g>
</g>
<g>
</g>
<g>
</g>
<g>
</g>
</svg>
