<?xml version="1.0" encoding="iso-8859-1"?>
<!-- Generator: Adobe Illustrator 19.0.0, SVG Export Plug-In . SVG Version: 6.00 Build 0)  -->
<svg version="1.1" id="Layer_1" xmlns="http://www.w3.org/2000/svg" xmlns:xlink="http://www.w3.org/1999/xlink" x="0px" y="0px"
	 viewBox="0 0 492.308 492.308" style="enable-background:new 0 0 492.308 492.308;" xml:space="preserve">
<g>
	<g>
		<path d="M246.154,5.971c-66.933,0-121.385,54.452-121.385,121.375c0,66.933,54.452,121.385,121.385,121.385
			s121.385-54.452,121.385-121.385C367.538,60.423,313.087,5.971,246.154,5.971z M246.154,229.038
			c-56.072,0-101.692-45.615-101.692-101.692c0-56.067,45.62-101.683,101.692-101.683c56.072,0,101.692,45.615,101.692,101.683
			C347.846,183.423,302.226,229.038,246.154,229.038z"/>
	</g>
</g>
<g>
	<g>
		<path d="M384.394,248.019c-1.822-1.25-5.486-3.625-5.486-3.625l-7.865-5.106l-5.486,7.615
			c-27.649,38.385-72.284,61.308-119.404,61.308c-47.125,0-91.769-22.923-119.413-61.317l-5.495-7.635l-12.447,8.163
			C40.673,293.308,0,369.683,0,451.712v34.625h492.308v-34.625C492.308,370.106,451.966,293.962,384.394,248.019z M472.615,466.644
			H19.692v-14.933c0-74.154,36.125-143.279,96.861-185.731c31.577,38.942,79.337,61.923,129.601,61.923
			c50.255,0,98.019-22.99,129.596-61.923c60.716,42.423,96.865,111.625,96.865,185.731V466.644z"/>
	</g>
</g>
<g>
</g>
<g>
</g>
<g>
</g>
<g>
</g>
<g>
</g>
<g>
</g>
<g>
</g>
<g>
</g>
<g>
</g>
<g>
</g>
<g>
</g>
<g>
</g>
<g>
</g>
<g>
</g>
<g>
</g>
</svg>
