<?xml version="1.0" encoding="UTF-8" standalone="no"?>
<!DOCTYPE svg PUBLIC "-//W3C//DTD SVG 1.1//EN" "http://www.w3.org/Graphics/SVG/1.1/DTD/svg11.dtd">
<svg width="100%" height="100%" viewBox="0 0 100 100" version="1.1" xmlns="http://www.w3.org/2000/svg" xmlns:xlink="http://www.w3.org/1999/xlink" xml:space="preserve" xmlns:serif="http://www.serif.com/" style="fill-rule:evenodd;clip-rule:evenodd;stroke-linejoin:round;stroke-miterlimit:2;">
    <g>
        <rect x="0" y="0" width="99.609" height="99.658" style="fill-opacity:0;"/>
        <path d="M49.805,99.609C77.051,99.609 99.609,77.002 99.609,49.805C99.609,22.559 77.002,0 49.756,0C22.559,0 0,22.559 0,49.805C0,77.002 22.607,99.609 49.805,99.609ZM49.805,91.309C26.758,91.309 8.35,72.852 8.35,49.805C8.35,26.758 26.709,8.301 49.756,8.301C72.803,8.301 91.309,26.758 91.309,49.805C91.309,72.852 72.852,91.309 49.805,91.309ZM27.148,49.805C27.148,52.197 28.809,53.809 31.299,53.809L45.654,53.809L45.654,68.213C45.654,70.654 47.315,72.363 49.707,72.363C52.148,72.363 53.857,70.703 53.857,68.213L53.857,53.809L68.262,53.809C70.703,53.809 72.412,52.197 72.412,49.805C72.412,47.363 70.703,45.654 68.262,45.654L53.857,45.654L53.857,31.299C53.857,28.809 52.148,27.1 49.707,27.1C47.315,27.1 45.654,28.809 45.654,31.299L45.654,45.654L31.299,45.654C28.809,45.654 27.148,47.363 27.148,49.805Z" style="fill:white;fill-opacity:0.85;fill-rule:nonzero;"/>
    </g>
</svg>
