<?xml version="1.0" encoding="UTF-8" standalone="no"?>
<!DOCTYPE svg PUBLIC "-//W3C//DTD SVG 1.1//EN" "http://www.w3.org/Graphics/SVG/1.1/DTD/svg11.dtd">
<svg width="100%" height="100%" viewBox="0 0 95 76" version="1.1" xmlns="http://www.w3.org/2000/svg" xmlns:xlink="http://www.w3.org/1999/xlink" xml:space="preserve" xmlns:serif="http://www.serif.com/" style="fill-rule:evenodd;clip-rule:evenodd;stroke-linejoin:round;stroke-miterlimit:2;">
    <g>
        <rect x="0" y="0" width="94.775" height="75.342" style="fill-opacity:0;"/>
        <path d="M0,75L7.959,75L7.959,0L0,0L0,75ZM15.674,75L20.215,75L20.215,0L15.674,0L15.674,75ZM27.832,75L40.82,75L40.82,0L27.832,0L27.832,75ZM45.557,75L53.857,75L53.857,0L45.557,0L45.557,75ZM58.789,75L71.68,75L71.68,0L58.789,0L58.789,75ZM75.635,75L85.742,75L85.742,0L75.635,0L75.635,75ZM88.232,75L94.775,75L94.775,0L88.232,0L88.232,75Z" style="fill:white;fill-opacity:0.85;fill-rule:nonzero;"/>
    </g>
</svg>
