<?xml version="1.0" encoding="UTF-8" standalone="no"?>
<!DOCTYPE svg PUBLIC "-//W3C//DTD SVG 1.1//EN" "http://www.w3.org/Graphics/SVG/1.1/DTD/svg11.dtd">
<svg width="100%" height="100%" viewBox="0 0 119 109" version="1.1" xmlns="http://www.w3.org/2000/svg" xmlns:xlink="http://www.w3.org/1999/xlink" xml:space="preserve" xmlns:serif="http://www.serif.com/" style="fill-rule:evenodd;clip-rule:evenodd;stroke-linejoin:round;stroke-miterlimit:2;">
    <g>
        <rect x="0" y="0" width="118.262" height="108.35" style="fill-opacity:0;"/>
        <path d="M15.332,99.17L66.162,99.17C64.746,96.729 63.672,94.092 62.988,91.309L14.6,91.309C10.254,91.309 7.861,89.014 7.861,84.473L7.861,38.428C7.861,33.936 10.254,31.592 14.6,31.592L82.666,31.592C87.012,31.592 89.453,33.936 89.453,38.428L89.453,52.295C90.869,52.148 92.139,52.051 93.457,52.051C94.727,52.051 96.045,52.148 97.315,52.295L97.315,24.414C97.315,14.355 92.236,9.277 82.031,9.277L15.332,9.277C5.127,9.277 0,14.307 0,24.414L0,84.033C0,94.141 5.127,99.17 15.332,99.17ZM39.111,49.121L41.992,49.121C43.701,49.121 44.287,48.633 44.287,46.924L44.287,44.043C44.287,42.334 43.701,41.797 41.992,41.797L39.111,41.797C37.402,41.797 36.816,42.334 36.816,44.043L36.816,46.924C36.816,48.633 37.402,49.121 39.111,49.121ZM55.371,49.121L58.203,49.121C59.912,49.121 60.498,48.633 60.498,46.924L60.498,44.043C60.498,42.334 59.912,41.797 58.203,41.797L55.371,41.797C53.613,41.797 53.076,42.334 53.076,44.043L53.076,46.924C53.076,48.633 53.613,49.121 55.371,49.121ZM71.582,49.121L74.463,49.121C76.172,49.121 76.709,48.633 76.709,46.924L76.709,44.043C76.709,42.334 76.172,41.797 74.463,41.797L71.582,41.797C69.873,41.797 69.287,42.334 69.287,44.043L69.287,46.924C69.287,48.633 69.873,49.121 71.582,49.121ZM22.9,65.088L25.781,65.088C27.49,65.088 28.027,64.6 28.027,62.891L28.027,60.01C28.027,58.301 27.49,57.813 25.781,57.813L22.9,57.813C21.191,57.813 20.606,58.301 20.606,60.01L20.606,62.891C20.606,64.6 21.191,65.088 22.9,65.088ZM39.111,65.088L41.992,65.088C43.701,65.088 44.287,64.6 44.287,62.891L44.287,60.01C44.287,58.301 43.701,57.813 41.992,57.813L39.111,57.813C37.402,57.813 36.816,58.301 36.816,60.01L36.816,62.891C36.816,64.6 37.402,65.088 39.111,65.088ZM55.371,65.088L58.203,65.088C59.912,65.088 60.498,64.6 60.498,62.891L60.498,60.01C60.498,58.301 59.912,57.813 58.203,57.813L55.371,57.813C53.613,57.813 53.076,58.301 53.076,60.01L53.076,62.891C53.076,64.6 53.613,65.088 55.371,65.088ZM22.9,81.104L25.781,81.104C27.49,81.104 28.027,80.566 28.027,78.857L28.027,75.977C28.027,74.268 27.49,73.779 25.781,73.779L22.9,73.779C21.191,73.779 20.606,74.268 20.606,75.977L20.606,78.857C20.606,80.566 21.191,81.104 22.9,81.104ZM39.111,81.104L41.992,81.104C43.701,81.104 44.287,80.566 44.287,78.857L44.287,75.977C44.287,74.268 43.701,73.779 41.992,73.779L39.111,73.779C37.402,73.779 36.816,74.268 36.816,75.977L36.816,78.857C36.816,80.566 37.402,81.104 39.111,81.104ZM55.371,81.104L58.203,81.104C59.912,81.104 60.498,80.566 60.498,78.857L60.498,75.977C60.498,74.268 59.912,73.779 58.203,73.779L55.371,73.779C53.613,73.779 53.076,74.268 53.076,75.977L53.076,78.857C53.076,80.566 53.613,81.104 55.371,81.104ZM93.457,108.35C106.885,108.35 118.262,97.119 118.262,83.545C118.262,69.922 107.031,58.74 93.457,58.74C79.834,58.74 68.652,69.971 68.652,83.545C68.652,97.217 79.834,108.35 93.457,108.35ZM81.885,87.354C80.176,87.354 78.809,85.986 78.809,84.326C78.809,82.715 80.225,81.348 81.885,81.348L90.674,81.348L90.674,69.092C90.674,67.481 92.041,66.162 93.701,66.162C95.361,66.162 96.729,67.481 96.729,69.092L96.729,84.326C96.729,86.035 95.41,87.354 93.701,87.354L81.885,87.354Z" style="fill:white;fill-opacity:0.85;fill-rule:nonzero;"/>
    </g>
</svg>
