<?xml version="1.0" encoding="UTF-8" standalone="no"?>
<!DOCTYPE svg PUBLIC "-//W3C//DTD SVG 1.1//EN" "http://www.w3.org/Graphics/SVG/1.1/DTD/svg11.dtd">
<svg width="100%" height="100%" viewBox="0 0 100 100" version="1.1" xmlns="http://www.w3.org/2000/svg" xmlns:xlink="http://www.w3.org/1999/xlink" xml:space="preserve" xmlns:serif="http://www.serif.com/" style="fill-rule:evenodd;clip-rule:evenodd;stroke-linejoin:round;stroke-miterlimit:2;">
    <g>
        <rect x="0" y="0" width="99.609" height="99.658" style="fill-opacity:0;"/>
        <path d="M49.805,99.609C77.051,99.609 99.609,77.002 99.609,49.805C99.609,22.559 77.002,0 49.756,0C22.559,0 0,22.559 0,49.805C0,77.002 22.607,99.609 49.805,99.609ZM32.227,40.332C28.418,40.332 25.293,37.158 25.293,33.398C25.293,29.541 28.418,26.416 32.227,26.416C36.035,26.416 39.111,29.541 39.111,33.398C39.111,37.158 36.035,40.332 32.227,40.332ZM49.805,40.332C45.996,40.332 42.871,37.158 42.871,33.398C42.871,29.492 45.996,26.465 49.805,26.416C53.613,26.416 56.738,29.492 56.738,33.398C56.738,37.158 53.613,40.332 49.805,40.332ZM67.383,40.332C63.574,40.332 60.498,37.158 60.498,33.398C60.498,29.492 63.574,26.465 67.383,26.416C71.191,26.416 74.316,29.492 74.316,33.398C74.316,37.158 71.191,40.332 67.383,40.332ZM32.227,56.738C28.418,56.738 25.293,53.565 25.293,49.805C25.293,45.996 28.418,42.871 32.227,42.871C36.035,42.822 39.111,45.996 39.111,49.805C39.111,53.565 36.035,56.738 32.227,56.738ZM49.805,56.738C45.996,56.738 42.871,53.565 42.871,49.805C42.871,45.996 45.996,42.871 49.805,42.871C53.613,42.822 56.738,45.996 56.738,49.805C56.738,53.565 53.613,56.738 49.805,56.738ZM67.383,56.738C63.574,56.738 60.498,53.565 60.498,49.805C60.498,45.996 63.574,42.871 67.383,42.871C71.191,42.822 74.316,45.996 74.316,49.805C74.316,53.565 71.191,56.738 67.383,56.738ZM32.227,73.193C28.418,73.193 25.293,70.068 25.293,66.211C25.293,62.451 28.418,59.277 32.227,59.277C36.035,59.277 39.111,62.451 39.111,66.211C39.111,70.117 36.035,73.193 32.227,73.193ZM49.805,73.193C45.996,73.193 42.871,70.068 42.871,66.211C42.871,62.451 45.996,59.277 49.805,59.277C53.613,59.277 56.738,62.451 56.738,66.211C56.738,70.068 53.613,73.193 49.805,73.193ZM67.383,73.193C63.574,73.193 60.498,70.068 60.498,66.211C60.498,62.451 63.574,59.277 67.383,59.277C71.191,59.277 74.316,62.451 74.316,66.211C74.316,70.068 71.191,73.193 67.383,73.193Z" style="fill:white;fill-opacity:0.85;fill-rule:nonzero;"/>
    </g>
</svg>
