<?xml version="1.0" encoding="UTF-8" standalone="no"?>
<!DOCTYPE svg PUBLIC "-//W3C//DTD SVG 1.1//EN" "http://www.w3.org/Graphics/SVG/1.1/DTD/svg11.dtd">
<svg width="100%" height="100%" viewBox="0 0 100 100" version="1.1" xmlns="http://www.w3.org/2000/svg" xmlns:xlink="http://www.w3.org/1999/xlink" xml:space="preserve" xmlns:serif="http://www.serif.com/" style="fill-rule:evenodd;clip-rule:evenodd;stroke-linejoin:round;stroke-miterlimit:2;">
    <g>
        <rect x="0" y="0" width="99.609" height="99.658" style="fill-opacity:0;"/>
        <path d="M49.805,99.609C77.051,99.609 99.609,77.002 99.609,49.805C99.609,22.559 77.002,0 49.756,0C22.559,0 0,22.559 0,49.805C0,77.002 22.607,99.609 49.805,99.609ZM49.805,91.309C26.758,91.309 8.35,72.852 8.35,49.805C8.35,26.758 26.709,8.301 49.756,8.301C72.803,8.301 91.309,26.758 91.309,49.805C91.309,72.852 72.852,91.309 49.805,91.309ZM33.106,70.459C34.228,70.459 35.205,70.019 35.938,69.238L49.756,55.371L63.672,69.238C64.404,69.971 65.332,70.459 66.455,70.459C68.604,70.459 70.361,68.701 70.361,66.504C70.361,65.381 69.971,64.502 69.19,63.721L55.322,49.853L69.238,35.889C70.068,35.059 70.41,34.228 70.41,33.154C70.41,31.006 68.652,29.248 66.504,29.248C65.478,29.248 64.648,29.639 63.818,30.469L49.756,44.385L35.84,30.518C35.107,29.736 34.228,29.346 33.106,29.346C30.957,29.346 29.199,31.055 29.199,33.203C29.199,34.277 29.639,35.205 30.371,35.938L44.238,49.853L30.371,63.77C29.639,64.502 29.199,65.43 29.199,66.504C29.199,68.701 30.957,70.459 33.106,70.459Z" style="fill:white;fill-opacity:0.85;fill-rule:nonzero;"/>
    </g>
</svg>
