<?xml version="1.0" encoding="UTF-8" standalone="no"?>
<!DOCTYPE svg PUBLIC "-//W3C//DTD SVG 1.1//EN" "http://www.w3.org/Graphics/SVG/1.1/DTD/svg11.dtd">
<svg width="100%" height="100%" viewBox="0 0 100 100" version="1.1" xmlns="http://www.w3.org/2000/svg" xmlns:xlink="http://www.w3.org/1999/xlink" xml:space="preserve" xmlns:serif="http://www.serif.com/" style="fill-rule:evenodd;clip-rule:evenodd;stroke-linejoin:round;stroke-miterlimit:2;">
    <g>
        <rect x="0" y="0" width="99.609" height="99.658" style="fill-opacity:0;"/>
        <path d="M49.805,99.609C77.051,99.609 99.609,77.002 99.609,49.805C99.609,22.559 77.002,0 49.756,0C22.559,0 0,22.559 0,49.805C0,77.002 22.607,99.609 49.805,99.609ZM49.805,91.309C26.758,91.309 8.35,72.852 8.35,49.805C8.35,26.758 26.709,8.301 49.756,8.301C72.803,8.301 91.309,26.758 91.309,49.805C91.309,72.852 72.852,91.309 49.805,91.309ZM32.715,40.625C36.426,40.625 39.404,37.549 39.404,33.838C39.404,30.176 36.426,27.1 32.715,27.1C29.004,27.1 25.977,30.176 25.977,33.838C25.977,37.549 29.004,40.625 32.715,40.625ZM49.756,40.625C53.467,40.625 56.494,37.549 56.494,33.838C56.494,30.127 53.467,27.1 49.756,27.1C46.045,27.148 42.969,30.127 42.969,33.838C42.969,37.549 46.045,40.625 49.756,40.625ZM66.797,40.625C70.508,40.625 73.535,37.549 73.535,33.838C73.535,30.127 70.508,27.1 66.797,27.1C63.086,27.148 60.107,30.127 60.107,33.838C60.107,37.549 63.086,40.625 66.797,40.625ZM32.715,56.543C36.426,56.543 39.404,53.467 39.404,49.756C39.404,46.045 36.426,43.018 32.715,43.066C29.004,43.066 25.977,46.045 25.977,49.756C25.977,53.467 29.004,56.543 32.715,56.543ZM49.756,56.543C53.467,56.543 56.494,53.467 56.494,49.756C56.494,46.045 53.467,43.018 49.756,43.066C46.045,43.066 42.969,46.045 42.969,49.756C42.969,53.467 46.045,56.543 49.756,56.543ZM66.797,56.543C70.508,56.543 73.535,53.467 73.535,49.756C73.535,46.045 70.508,43.018 66.797,43.066C63.086,43.066 60.107,46.045 60.107,49.756C60.107,53.467 63.086,56.543 66.797,56.543ZM32.715,72.461C36.426,72.461 39.404,69.434 39.404,65.723C39.404,62.012 36.426,58.935 32.715,58.935C29.004,58.935 25.977,62.012 25.977,65.723C25.977,69.385 29.004,72.461 32.715,72.461ZM49.756,72.461C53.467,72.461 56.494,69.385 56.494,65.723C56.494,62.012 53.467,58.935 49.756,58.935C46.045,58.935 42.969,62.012 42.969,65.723C42.969,69.385 46.045,72.461 49.756,72.461ZM66.797,72.461C70.508,72.461 73.535,69.385 73.535,65.723C73.535,62.012 70.508,58.935 66.797,58.935C63.086,58.935 60.107,62.012 60.107,65.723C60.107,69.385 63.086,72.461 66.797,72.461Z" style="fill:white;fill-opacity:0.85;fill-rule:nonzero;"/>
    </g>
</svg>
