<?xml version="1.0" encoding="UTF-8" standalone="no"?>
<!DOCTYPE svg PUBLIC "-//W3C//DTD SVG 1.1//EN" "http://www.w3.org/Graphics/SVG/1.1/DTD/svg11.dtd">
<svg width="100%" height="100%" viewBox="0 0 100 100" version="1.1" xmlns="http://www.w3.org/2000/svg" xmlns:xlink="http://www.w3.org/1999/xlink" xml:space="preserve" xmlns:serif="http://www.serif.com/" style="fill-rule:evenodd;clip-rule:evenodd;stroke-linejoin:round;stroke-miterlimit:2;">
    <g>
        <rect x="0" y="0" width="99.609" height="99.658" style="fill-opacity:0;"/>
        <path d="M49.805,99.609C77.051,99.609 99.609,77.002 99.609,49.805C99.609,22.559 77.002,0 49.756,0C22.559,0 0,22.559 0,49.805C0,77.002 22.607,99.609 49.805,99.609ZM33.398,70.313C31.152,70.313 29.395,68.506 29.395,66.26C29.395,65.186 29.785,64.16 30.566,63.428L44.092,49.853L30.566,36.328C29.785,35.547 29.395,34.57 29.395,33.496C29.395,31.201 31.152,29.492 33.398,29.492C34.522,29.492 35.4,29.883 36.182,30.615L49.805,44.19L63.525,30.566C64.356,29.736 65.234,29.395 66.309,29.395C68.555,29.395 70.361,31.152 70.361,33.398C70.361,34.522 70.019,35.4 69.141,36.279L55.566,49.853L69.092,63.379C69.922,64.111 70.313,65.137 70.313,66.26C70.313,68.506 68.506,70.313 66.211,70.313C65.088,70.313 64.063,69.922 63.33,69.141L49.805,55.566L36.328,69.141C35.547,69.922 34.522,70.313 33.398,70.313Z" style="fill:white;fill-opacity:0.85;fill-rule:nonzero;"/>
    </g>
</svg>
