<?xml version="1.0" encoding="UTF-8" standalone="no"?>
<!DOCTYPE svg PUBLIC "-//W3C//DTD SVG 1.1//EN" "http://www.w3.org/Graphics/SVG/1.1/DTD/svg11.dtd">
<svg width="100%" height="100%" viewBox="0 0 100 123" version="1.1" xmlns="http://www.w3.org/2000/svg" xmlns:xlink="http://www.w3.org/1999/xlink" xml:space="preserve" xmlns:serif="http://www.serif.com/" style="fill-rule:evenodd;clip-rule:evenodd;stroke-linejoin:round;stroke-miterlimit:2;">
    <g>
        <rect x="0" y="0" width="99.854" height="122.998" style="fill-opacity:0;"/>
        <path d="M15.137,122.852L61.035,122.852C71.143,122.852 76.172,117.676 76.172,107.52L76.172,68.945L42.09,68.945C35.791,68.945 32.861,65.967 32.861,59.717L32.861,24.365L15.137,24.365C5.078,24.365 0,29.492 0,39.697L0,107.52C0,117.725 5.029,122.852 15.137,122.852ZM42.041,62.256L75.293,62.256C74.805,60.352 73.682,58.594 71.484,56.348L45.41,29.785C43.262,27.588 41.406,26.123 39.502,25.586L39.502,59.766C39.502,61.426 40.381,62.256 42.041,62.256ZM82.813,98.486L84.717,98.486C94.727,98.486 99.854,93.311 99.854,83.154L99.854,36.816L72.852,36.816C67.725,36.816 64.844,33.936 64.844,28.857L64.844,0L38.818,0C28.906,0 23.682,5.176 23.682,14.941L23.682,17.725L30.762,17.725C37.598,17.725 43.115,19.287 48.584,24.756L76.318,52.441C81.787,57.959 82.813,63.623 82.813,70.264L82.813,98.486ZM73.779,30.713L99.268,30.713C99.023,29.15 97.949,27.783 96.24,26.074L75.586,5.029C73.926,3.271 72.51,2.197 70.996,2.002L71.045,27.881C71.045,29.883 71.777,30.713 73.779,30.713Z" style="fill:white;fill-opacity:0.85;fill-rule:nonzero;"/>
    </g>
</svg>
