<?xml version="1.0" encoding="UTF-8" standalone="no"?>
<!DOCTYPE svg PUBLIC "-//W3C//DTD SVG 1.1//EN" "http://www.w3.org/Graphics/SVG/1.1/DTD/svg11.dtd">
<svg width="100%" height="100%" viewBox="0 0 520 520" version="1.1" xmlns="http://www.w3.org/2000/svg" xmlns:xlink="http://www.w3.org/1999/xlink" xml:space="preserve" xmlns:serif="http://www.serif.com/" style="fill-rule:evenodd;clip-rule:evenodd;">
    <g id="Layer1">
    </g>
    <g id="Layer2">
    </g>
    <g id="Layer4">
    </g>
    <g id="Layer3">
    </g>
    <g transform="matrix(27.1951,0,0,27.1812,0,0)">
        <rect x="0" y="0" width="19.121" height="19.131" style="fill-opacity:0;"/>
        <path d="M0.781,6.23C1.299,6.23 1.572,5.938 1.572,5.43L1.572,3.125C1.572,2.109 2.109,1.592 3.086,1.592L5.449,1.592C5.967,1.592 6.25,1.309 6.25,0.801C6.25,0.293 5.967,0.02 5.449,0.02L3.066,0.02C1.025,0.02 0,1.025 0,3.037L0,5.43C0,5.938 0.283,6.23 0.781,6.23ZM18.33,6.23C18.848,6.23 19.121,5.938 19.121,5.43L19.121,3.037C19.121,1.025 18.096,0.02 16.055,0.02L13.662,0.02C13.154,0.02 12.871,0.293 12.871,0.801C12.871,1.309 13.154,1.592 13.662,1.592L16.025,1.592C16.992,1.592 17.549,2.109 17.549,3.125L17.549,5.43C17.549,5.938 17.832,6.23 18.33,6.23ZM3.066,19.131L5.449,19.131C5.967,19.131 6.25,18.848 6.25,18.35C6.25,17.842 5.967,17.559 5.449,17.559L3.086,17.559C2.109,17.559 1.572,17.041 1.572,16.025L1.572,13.721C1.572,13.203 1.289,12.92 0.781,12.92C0.273,12.92 0,13.203 0,13.721L0,16.104C0,18.125 1.025,19.131 3.066,19.131ZM13.662,19.131L16.055,19.131C18.096,19.131 19.121,18.115 19.121,16.104L19.121,13.721C19.121,13.203 18.838,12.92 18.33,12.92C17.822,12.92 17.549,13.203 17.549,13.721L17.549,16.025C17.549,17.041 16.992,17.559 16.025,17.559L13.662,17.559C13.154,17.559 12.871,17.842 12.871,18.35C12.871,18.848 13.154,19.131 13.662,19.131Z" style="fill:rgb(27,57,85);fill-rule:nonzero;"/>
    </g>
    <g transform="matrix(0.984398,0,0,0.983894,76.509,79.0956)">
        <g transform="matrix(1,0,0,1,-8.12679,-14.0828)">
            <path d="M147.333,62.332L147.333,86.333C147.333,86.333 123.214,94.721 123.333,101.666C123.417,106.587 140.666,110.999 140.666,110.999L127.333,270.999C127.333,270.999 212,320.999 242.666,302.999C273.332,284.999 224.666,112.999 224.666,112.999C224.666,112.999 242.686,104.526 241.999,98.999C241.117,91.895 214.166,86.332 214.166,86.332L214.166,62.332L147.333,62.332Z" style="fill:rgb(63,169,245);fill-rule:nonzero;stroke:rgb(13,18,66);stroke-width:3.97px;"/>
        </g>
        <g transform="matrix(1,0,0,1,-8.12679,-14.0828)">
            <path d="M148.333,62.333L148.333,42.333" style="fill:none;fill-rule:nonzero;stroke:rgb(13,18,66);stroke-width:3.97px;"/>
        </g>
        <g transform="matrix(1,0,0,1,-8.12679,-14.0828)">
            <path d="M213,62.333L213,42.333" style="fill:none;fill-rule:nonzero;stroke:rgb(13,18,66);stroke-width:3.97px;"/>
        </g>
        <g transform="matrix(1,0,0,1,-8.12679,-14.0828)">
            <path d="M156.667,62.333L156.667,41" style="fill:none;fill-rule:nonzero;stroke:rgb(13,18,66);stroke-width:3.97px;"/>
        </g>
        <g transform="matrix(1,0,0,1,-8.12679,-14.0828)">
            <path d="M205,62.333L205,41" style="fill:none;fill-rule:nonzero;stroke:rgb(13,18,66);stroke-width:3.97px;"/>
        </g>
        <g transform="matrix(1,0,0,1,-8.12679,-14.0828)">
            <path d="M181.333,62.333L181.333,36.333" style="fill:none;fill-rule:nonzero;stroke:rgb(13,18,66);stroke-width:3.97px;"/>
        </g>
        <g transform="matrix(1,0,0,1,-8.12679,-14.0828)">
            <path d="M132,45.667L181.333,36.334L231.333,45.667L187.112,15.532C187.112,15.532 184.993,5.923 181.334,6.001C177.383,6.085 175.418,15.532 175.418,15.532L132,45.667Z" style="fill:rgb(63,169,245);fill-rule:nonzero;stroke:rgb(13,18,66);stroke-width:3.97px;"/>
        </g>
        <g transform="matrix(1,0,0,1,-8.12679,-14.0828)">
            <path d="M11,257.5C11,257.5 51.793,271.732 64.459,278.496C83.856,288.853 114.645,313.324 136.986,328.26C180.224,357.165 223.245,363.174 252.807,358.511C272.876,355.345 309.259,339.083 330.245,333.845C354.221,327.86 389,339.5 389,339.5C389,339.5 375.548,320.105 362.312,312.026C353.086,306.396 345,301 321,301C308.465,301 288.713,305.236 278.5,308.75C267.198,312.639 256.468,320.468 231.333,320.468C204.222,320.468 151.316,301.137 126.597,290C107.583,281.434 78.36,268.974 60,259.085C47.376,252.286 11,257.5 11,257.5Z" style="fill:rgb(63,169,245);fill-rule:nonzero;stroke:rgb(13,18,66);stroke-width:3.97px;"/>
        </g>
        <g transform="matrix(1,0,0,1,-8.12679,-14.0828)">
            <path d="M61.611,291.896C61.611,291.896 97.681,341.181 112.433,355.087C132.736,374.227 171.059,396.797 219.111,387.896C262.299,379.896 262.111,372.396 262.111,372.396C262.111,372.396 219.119,378.857 189.682,367.896C170.772,360.855 135.61,340.473 118.744,329.396C104.463,320.018 61.611,291.896 61.611,291.896Z" style="fill:rgb(63,169,245);fill-rule:nonzero;stroke:rgb(13,18,66);stroke-width:3.97px;"/>
        </g>
    </g>
</svg>
