<?xml version="1.0" encoding="UTF-8" standalone="no"?>
<!DOCTYPE svg PUBLIC "-//W3C//DTD SVG 1.1//EN" "http://www.w3.org/Graphics/SVG/1.1/DTD/svg11.dtd">
<svg width="100%" height="100%" viewBox="0 0 20 20" version="1.1" xmlns="http://www.w3.org/2000/svg" xmlns:xlink="http://www.w3.org/1999/xlink" xml:space="preserve" xmlns:serif="http://www.serif.com/" style="fill-rule:evenodd;clip-rule:evenodd;">
    <g id="Layer1">
    </g>
    <g transform="matrix(0.467205,0,0,0.467205,1.77636e-15,0.0097656)">
        <rect x="0" y="0" width="19.121" height="19.131" style="fill-opacity:0;"/>
        <g transform="matrix(1.22855,0,0,1.22855,1.02667,0.445491)">
            <path d="M5.303,14.258L8.701,14.258C8.945,14.258 9.131,14.072 9.131,13.828L9.131,10.43C9.131,10.186 8.945,10 8.701,10L5.303,10C5.059,10 4.873,10.186 4.873,10.43L4.873,13.828C4.873,14.072 5.059,14.258 5.303,14.258ZM5.723,13.408L5.723,10.85L8.281,10.85L8.281,13.408L5.723,13.408ZM6.465,12.656L7.539,12.656L7.539,11.592L6.465,11.592L6.465,12.656ZM5.303,9.15L8.701,9.15C8.945,9.15 9.131,8.965 9.131,8.73L9.131,5.322C9.131,5.088 8.945,4.893 8.701,4.893L5.303,4.893C5.059,4.893 4.873,5.088 4.873,5.322L4.873,8.73C4.873,8.965 5.059,9.15 5.303,9.15ZM5.723,8.301L5.723,5.742L8.281,5.742L8.281,8.301L5.723,8.301ZM6.465,7.559L7.539,7.559L7.539,6.484L6.465,6.484L6.465,7.559ZM10.4,9.15L13.799,9.15C14.043,9.15 14.229,8.965 14.229,8.73L14.229,5.322C14.229,5.088 14.043,4.893 13.799,4.893L10.4,4.893C10.156,4.893 9.971,5.088 9.971,5.322L9.971,8.73C9.971,8.965 10.156,9.15 10.4,9.15ZM10.82,8.301L10.82,5.742L13.379,5.742L13.379,8.301L10.82,8.301ZM11.572,7.559L12.637,7.559L12.637,6.484L11.572,6.484L11.572,7.559ZM10.098,14.131L11.162,14.131L11.162,13.066L10.098,13.066L10.098,14.131ZM13.037,14.131L14.102,14.131L14.102,13.066L13.037,13.066L13.037,14.131ZM11.563,12.656L12.637,12.656L12.637,11.592L11.563,11.592L11.563,12.656ZM10.098,11.182L11.162,11.182L11.162,10.117L10.098,10.117L10.098,11.182ZM13.037,11.182L14.102,11.182L14.102,10.117L13.037,10.117L13.037,11.182Z" style="fill:rgb(27,57,85);fill-opacity:0.85;fill-rule:nonzero;"/>
        </g>
    </g>
    <g id="Layer2">
    </g>
    <g transform="matrix(1,0,0,1,1.77636e-15,0.0097656)">
        <rect x="0" y="0" width="19.121" height="19.131" style="fill-opacity:0;"/>
        <g transform="matrix(0.602271,0,0,0.677061,7.34125,-0.778851)">
            <path d="M5.098,13.545L5.801,13.545L5.801,5.605L5.098,5.605L5.098,13.545ZM6.68,13.545L7.998,13.545L7.998,5.605L6.68,5.605L6.68,13.545ZM8.584,13.545L9.414,13.545L9.414,5.605L8.584,5.605L8.584,13.545ZM10.156,13.545L11.436,13.545L11.436,5.605L10.156,5.605L10.156,13.545ZM11.963,13.545L12.988,13.545L12.988,5.605L11.963,5.605L11.963,13.545ZM13.359,13.545L14.014,13.545L14.014,5.605L13.359,5.605L13.359,13.545Z" style="fill:rgb(27,57,85);fill-opacity:0.85;fill-rule:nonzero;"/>
        </g>
    </g>
    <g id="Layer4">
    </g>
    <g transform="matrix(0.283195,0,0,0.283195,3.27671,11.5925)">
        <rect x="0" y="0" width="19.678" height="16.885" style="fill-opacity:0;"/>
        <g transform="matrix(1,0,0,1,0,-0.951446)">
            <path d="M0.732,1.475L11.709,1.475C12.119,1.475 12.451,1.152 12.451,0.732C12.451,0.322 12.119,0 11.709,0L0.732,0C0.322,0 0,0.322 0,0.732C0,1.152 0.322,1.475 0.732,1.475ZM14.629,1.475L18.926,1.475C19.336,1.475 19.678,1.152 19.678,0.732C19.678,0.322 19.336,0 18.926,0L14.629,0C14.219,0 13.897,0.322 13.897,0.732C13.897,1.152 14.219,1.475 14.629,1.475ZM0.742,6.592L2.803,6.592C3.223,6.592 3.545,6.27 3.545,5.85C3.545,5.439 3.223,5.117 2.803,5.117L0.742,5.117C0.332,5.117 0,5.439 0,5.85C0,6.27 0.332,6.592 0.742,6.592ZM5.732,6.592L10.869,6.592C11.289,6.592 11.611,6.27 11.611,5.85C11.611,5.439 11.289,5.117 10.869,5.117L5.732,5.117C5.322,5.117 4.99,5.439 4.99,5.85C4.99,6.27 5.322,6.592 5.732,6.592ZM13.799,6.592L18.936,6.592C19.346,6.592 19.678,6.27 19.678,5.85C19.678,5.439 19.346,5.117 18.936,5.117L13.799,5.117C13.389,5.117 13.047,5.439 13.047,5.85C13.047,6.27 13.389,6.592 13.799,6.592ZM0.742,11.709L5.039,11.709C5.449,11.709 5.781,11.377 5.781,10.967C5.781,10.557 5.449,10.234 5.039,10.234L0.742,10.234C0.332,10.234 0,10.557 0,10.967C0,11.377 0.332,11.709 0.742,11.709ZM7.969,11.709L18.936,11.709C19.346,11.709 19.678,11.377 19.678,10.967C19.678,10.557 19.346,10.234 18.936,10.234L7.969,10.234C7.549,10.234 7.217,10.557 7.217,10.967C7.217,11.377 7.549,11.709 7.969,11.709ZM0.732,16.816L11.182,16.816C11.592,16.816 11.924,16.494 11.924,16.084C11.924,15.674 11.592,15.342 11.182,15.342L0.732,15.342C0.322,15.342 0,15.674 0,16.084C0,16.494 0.322,16.816 0.732,16.816Z" style="fill:rgb(27,57,85);fill-opacity:0.85;fill-rule:nonzero;"/>
        </g>
    </g>
    <g id="Layer3">
    </g>
    <g transform="matrix(1,0,0,1,1.77636e-15,0.0097656)">
        <rect x="0" y="0" width="19.121" height="19.131" style="fill-opacity:0;"/>
        <g transform="matrix(0.395511,0,0,0.395511,10.0224,9.92282)">
            <path d="M6.875,15.605L12.685,15.605C13.916,15.605 14.56,14.941 14.56,13.701L14.56,8.74C14.56,7.959 14.443,7.617 13.994,7.158L10.977,4.082C10.557,3.662 10.166,3.516 9.473,3.516L6.875,3.516C5.654,3.516 5,4.18 5,5.41L5,13.701C5,14.941 5.654,15.605 6.875,15.605ZM6.914,14.365C6.445,14.365 6.23,14.141 6.23,13.691L6.23,5.43C6.23,4.98 6.455,4.756 6.924,4.756L9.17,4.756L9.17,7.754C9.17,8.525 9.6,8.955 10.381,8.955L13.33,8.955L13.33,13.691C13.33,14.141 13.115,14.365 12.637,14.365L6.914,14.365ZM10.518,7.773C10.4,7.773 10.352,7.734 10.352,7.617L10.352,5.176L12.9,7.773L10.518,7.773Z" style="fill:rgb(27,57,85);fill-opacity:0.85;fill-rule:nonzero;"/>
        </g>
    </g>
    <g>
        <rect x="0" y="0" width="19.121" height="19.131" style="fill-opacity:0;"/>
        <path d="M0.781,6.23C1.299,6.23 1.572,5.938 1.572,5.43L1.572,3.125C1.572,2.109 2.109,1.592 3.086,1.592L5.449,1.592C5.967,1.592 6.25,1.309 6.25,0.801C6.25,0.293 5.967,0.02 5.449,0.02L3.066,0.02C1.025,0.02 0,1.025 0,3.037L0,5.43C0,5.938 0.283,6.23 0.781,6.23ZM18.33,6.23C18.848,6.23 19.121,5.938 19.121,5.43L19.121,3.037C19.121,1.025 18.096,0.02 16.055,0.02L13.662,0.02C13.154,0.02 12.871,0.293 12.871,0.801C12.871,1.309 13.154,1.592 13.662,1.592L16.025,1.592C16.992,1.592 17.549,2.109 17.549,3.125L17.549,5.43C17.549,5.938 17.832,6.23 18.33,6.23ZM3.066,19.131L5.449,19.131C5.967,19.131 6.25,18.848 6.25,18.35C6.25,17.842 5.967,17.559 5.449,17.559L3.086,17.559C2.109,17.559 1.572,17.041 1.572,16.025L1.572,13.721C1.572,13.203 1.289,12.92 0.781,12.92C0.273,12.92 0,13.203 0,13.721L0,16.104C0,18.125 1.025,19.131 3.066,19.131ZM13.662,19.131L16.055,19.131C18.096,19.131 19.121,18.115 19.121,16.104L19.121,13.721C19.121,13.203 18.838,12.92 18.33,12.92C17.822,12.92 17.549,13.203 17.549,13.721L17.549,16.025C17.549,17.041 16.992,17.559 16.025,17.559L13.662,17.559C13.154,17.559 12.871,17.842 12.871,18.35C12.871,18.848 13.154,19.131 13.662,19.131Z" style="fill:rgb(27,57,85);fill-rule:nonzero;"/>
    </g>
    <g transform="matrix(0.0335928,0,0,0.0335928,2.84199,2.92557)">
        <path d="M147.333,62.332L147.333,86.333C147.333,86.333 123.214,94.721 123.333,101.666C123.417,106.587 140.666,110.999 140.666,110.999L127.333,270.999C127.333,270.999 212,320.999 242.666,302.999C273.332,284.999 224.666,112.999 224.666,112.999C224.666,112.999 242.686,104.526 241.999,98.999C241.117,91.895 214.166,86.332 214.166,86.332L214.166,62.332L147.333,62.332Z" style="fill:rgb(63,169,245);fill-rule:nonzero;stroke:rgb(13,18,66);stroke-width:3.97px;"/>
        <path d="M148.333,62.333L148.333,42.333" style="fill:none;fill-rule:nonzero;stroke:rgb(13,18,66);stroke-width:3.97px;"/>
        <path d="M213,62.333L213,42.333" style="fill:none;fill-rule:nonzero;stroke:rgb(13,18,66);stroke-width:3.97px;"/>
        <path d="M156.667,62.333L156.667,41" style="fill:none;fill-rule:nonzero;stroke:rgb(13,18,66);stroke-width:3.97px;"/>
        <path d="M205,62.333L205,41" style="fill:none;fill-rule:nonzero;stroke:rgb(13,18,66);stroke-width:3.97px;"/>
        <path d="M181.333,62.333L181.333,36.333" style="fill:none;fill-rule:nonzero;stroke:rgb(13,18,66);stroke-width:3.97px;"/>
        <path d="M132,45.667L181.333,36.334L231.333,45.667L187.112,15.532C187.112,15.532 184.993,5.923 181.334,6.001C177.383,6.085 175.418,15.532 175.418,15.532L132,45.667Z" style="fill:rgb(63,169,245);fill-rule:nonzero;stroke:rgb(13,18,66);stroke-width:3.97px;"/>
        <path d="M11,257.5C11,257.5 51.793,271.732 64.459,278.496C83.856,288.853 114.645,313.324 136.986,328.26C180.224,357.165 223.245,363.174 252.807,358.511C272.876,355.345 309.259,339.083 330.245,333.845C354.221,327.86 389,339.5 389,339.5C389,339.5 375.548,320.105 362.312,312.026C353.086,306.396 345,301 321,301C308.465,301 288.713,305.236 278.5,308.75C267.198,312.639 256.468,320.468 231.333,320.468C204.222,320.468 151.316,301.137 126.597,290C107.583,281.434 78.36,268.974 60,259.085C47.376,252.286 11,257.5 11,257.5Z" style="fill:rgb(63,169,245);fill-rule:nonzero;stroke:rgb(13,18,66);stroke-width:3.97px;"/>
        <path d="M61.611,291.896C61.611,291.896 97.681,341.181 112.433,355.087C132.736,374.227 171.059,396.797 219.111,387.896C262.299,379.896 262.111,372.396 262.111,372.396C262.111,372.396 219.119,378.857 189.682,367.896C170.772,360.855 135.61,340.473 118.744,329.396C104.463,320.018 61.611,291.896 61.611,291.896Z" style="fill:rgb(63,169,245);fill-rule:nonzero;stroke:rgb(13,18,66);stroke-width:3.97px;"/>
    </g>
</svg>
