<?xml version="1.0" encoding="UTF-8" standalone="no"?>
<!DOCTYPE svg PUBLIC "-//W3C//DTD SVG 1.1//EN" "http://www.w3.org/Graphics/SVG/1.1/DTD/svg11.dtd">
<svg width="100%" height="100%" viewBox="0 0 87 108" version="1.1" xmlns="http://www.w3.org/2000/svg" xmlns:xlink="http://www.w3.org/1999/xlink" xml:space="preserve" xmlns:serif="http://www.serif.com/" style="fill-rule:evenodd;clip-rule:evenodd;stroke-linejoin:round;stroke-miterlimit:2;">
    <g>
        <rect x="0" y="0" width="86.67" height="107.861" style="fill-opacity:0;"/>
        <path d="M0,90.283C0,100.342 5.127,105.42 15.332,105.42L71.338,105.42C81.543,105.42 86.67,100.342 86.67,90.283L86.67,42.529C86.67,32.471 81.543,27.393 71.338,27.393L47.217,27.393L47.217,3.809C47.217,1.758 45.459,0 43.359,0C41.26,0 39.453,1.758 39.453,3.809L39.453,27.393L15.332,27.393C5.127,27.393 0,32.471 0,42.529L0,90.283ZM43.311,73.926C42.334,73.926 41.504,73.633 40.478,72.656L23.975,56.69C23.242,55.957 22.852,55.176 22.852,54.15C22.852,52.148 24.316,50.732 26.367,50.732C27.295,50.732 28.369,51.123 29.053,51.904L37.353,60.693L39.746,63.232L39.453,55.908L39.453,30.811C39.453,28.613 41.016,27.1 43.311,27.1C45.606,27.1 47.217,28.613 47.217,30.811L47.217,55.908L46.924,63.232L49.268,60.693L57.617,51.904C58.301,51.123 59.277,50.732 60.254,50.732C62.256,50.732 63.818,52.148 63.818,54.15C63.818,55.176 63.379,55.957 62.647,56.69L46.143,72.656C45.166,73.633 44.336,73.926 43.311,73.926Z" style="fill:white;fill-opacity:0.85;fill-rule:nonzero;"/>
    </g>
</svg>
