<?xml version="1.0" encoding="UTF-8" standalone="no"?>
<!DOCTYPE svg PUBLIC "-//W3C//DTD SVG 1.1//EN" "http://www.w3.org/Graphics/SVG/1.1/DTD/svg11.dtd">
<svg width="100%" height="100%" viewBox="0 0 127 98" version="1.1" xmlns="http://www.w3.org/2000/svg" xmlns:xlink="http://www.w3.org/1999/xlink" xml:space="preserve" xmlns:serif="http://www.serif.com/" style="fill-rule:evenodd;clip-rule:evenodd;stroke-linejoin:round;stroke-miterlimit:2;">
    <g>
        <rect x="0" y="0" width="126.269" height="97.12" style="fill-opacity:0;"/>
        <path d="M52.441,94.043L83.496,94.043C85.644,94.043 87.402,92.286 87.402,90.137C87.402,87.989 85.644,86.182 83.496,86.182L60.351,86.182L52.441,94.043ZM98.046,94.043L122.314,94.043C124.462,94.043 126.269,92.286 126.269,90.137C126.269,87.989 124.462,86.182 122.314,86.182L98.046,86.182C95.898,86.182 94.14,87.989 94.14,90.137C94.14,92.286 95.898,94.043 98.046,94.043ZM14.843,40.528L55.712,81.397L93.017,44.092C97.363,39.747 97.265,33.594 92.822,29.151L67.089,3.37C62.646,-1.074 56.494,-1.123 52.148,3.223L14.843,40.528ZM5.712,72.852L23.339,90.528C30.712,97.803 38.964,98.096 45.898,91.162L51.025,86.084L10.107,45.215L5.029,50.245C-1.905,57.227 -1.661,65.528 5.712,72.852Z" style="fill:white;fill-opacity:0.85;fill-rule:nonzero;"/>
    </g>
</svg>
