<?xml version="1.0" encoding="UTF-8" standalone="no"?>
<!DOCTYPE svg PUBLIC "-//W3C//DTD SVG 1.1//EN" "http://www.w3.org/Graphics/SVG/1.1/DTD/svg11.dtd">
<svg width="100%" height="100%" viewBox="0 0 127 99" version="1.1" xmlns="http://www.w3.org/2000/svg" xmlns:xlink="http://www.w3.org/1999/xlink" xml:space="preserve" xmlns:serif="http://www.serif.com/" style="fill-rule:evenodd;clip-rule:evenodd;stroke-linejoin:round;stroke-miterlimit:2;">
    <g transform="matrix(1,0,0,1,1.36325e-06,1.72786e-06)">
        <rect x="0" y="0" width="126.275" height="98.244" style="fill-opacity:0;"/>
        <path d="M52.447,94.605L83.501,94.605C85.65,94.605 87.407,92.848 87.407,90.699C87.407,88.551 85.65,86.744 83.501,86.744L60.357,86.744L52.447,94.605ZM98.052,94.605L122.368,94.605C124.517,94.605 126.275,92.848 126.275,90.699C126.275,88.551 124.517,86.744 122.368,86.744L98.052,86.744C95.903,86.744 94.146,88.551 94.146,90.699C94.146,92.848 95.903,94.605 98.052,94.605ZM5.669,72.877L24.566,91.725C31.939,99.049 40.191,99.342 47.124,92.408L94.195,45.289C98.54,40.992 98.491,34.791 94.048,30.348L67.046,3.394C62.603,-1.049 56.45,-1.147 52.105,3.199L5.034,50.27C-1.899,57.252 -1.655,65.504 5.669,72.877ZM11.236,67.311C7.476,63.502 7.28,59.156 10.845,55.543L57.329,9.059C58.599,7.789 60.357,7.789 61.577,9.01L88.433,35.865C89.653,37.086 89.605,38.795 88.384,40.016L41.851,86.549C38.286,90.162 33.941,89.967 30.132,86.158L11.236,67.311ZM12.798,47.877L49.517,84.644L54.4,79.762L17.779,43.141L12.798,47.877Z" style="fill:white;fill-opacity:0.85;fill-rule:nonzero;"/>
    </g>
</svg>
