<?xml version="1.0" encoding="UTF-8" standalone="no"?>
<!DOCTYPE svg PUBLIC "-//W3C//DTD SVG 1.1//EN" "http://www.w3.org/Graphics/SVG/1.1/DTD/svg11.dtd">
<svg width="100%" height="100%" viewBox="0 0 100 100" version="1.1" xmlns="http://www.w3.org/2000/svg" xmlns:xlink="http://www.w3.org/1999/xlink" xml:space="preserve" xmlns:serif="http://www.serif.com/" style="fill-rule:evenodd;clip-rule:evenodd;stroke-linejoin:round;stroke-miterlimit:2;">
    <g>
        <rect x="0" y="0" width="99.609" height="99.658" style="fill-opacity:0;"/>
        <path d="M49.805,99.609C77.051,99.609 99.609,77.002 99.609,49.805C99.609,22.559 77.002,0 49.756,0C22.559,0 0,22.559 0,49.805C0,77.002 22.607,99.609 49.805,99.609ZM22.461,39.795C20.215,39.795 18.604,38.379 18.604,36.231C18.604,34.082 20.215,32.666 22.461,32.666L77.344,32.666C79.541,32.666 81.201,34.082 81.201,36.231C81.201,38.379 79.541,39.795 77.344,39.795L22.461,39.795ZM29.932,56.494C27.637,56.494 26.074,55.078 26.074,52.881C26.074,50.732 27.637,49.316 29.932,49.316L69.873,49.316C72.119,49.316 73.682,50.732 73.682,52.881C73.682,55.078 72.119,56.494 69.873,56.494L29.932,56.494ZM37.695,73.193C35.449,73.193 33.887,71.729 33.887,69.58C33.887,67.481 35.449,66.065 37.695,66.065L62.06,66.065C64.307,66.065 65.918,67.481 65.918,69.58C65.918,71.729 64.307,73.193 62.06,73.193L37.695,73.193Z" style="fill:white;fill-opacity:0.85;fill-rule:nonzero;"/>
    </g>
</svg>
