<?xml version="1.0" encoding="UTF-8" standalone="no"?>
<!DOCTYPE svg PUBLIC "-//W3C//DTD SVG 1.1//EN" "http://www.w3.org/Graphics/SVG/1.1/DTD/svg11.dtd">
<svg width="100%" height="100%" viewBox="0 0 100 100" version="1.1" xmlns="http://www.w3.org/2000/svg" xmlns:xlink="http://www.w3.org/1999/xlink" xml:space="preserve" xmlns:serif="http://www.serif.com/" style="fill-rule:evenodd;clip-rule:evenodd;stroke-linejoin:round;stroke-miterlimit:2;">
    <g>
        <rect x="0" y="0" width="99.609" height="99.658" style="fill-opacity:0;"/>
        <path d="M49.805,99.609C77.051,99.609 99.609,77.002 99.609,49.805C99.609,22.559 77.002,0 49.756,0C22.559,0 0,22.559 0,49.805C0,77.002 22.607,99.609 49.805,99.609ZM49.805,91.309C26.758,91.309 8.35,72.852 8.35,49.805C8.35,26.758 26.709,8.301 49.756,8.301C72.803,8.301 91.309,26.758 91.309,49.805C91.309,72.852 72.852,91.309 49.805,91.309ZM23.242,40.186L76.465,40.186C78.613,40.186 80.176,38.818 80.176,36.719C80.176,34.668 78.613,33.301 76.465,33.301L23.242,33.301C21.045,33.301 19.531,34.668 19.531,36.719C19.531,38.818 21.045,40.186 23.242,40.186ZM30.469,56.348L69.238,56.348C71.387,56.348 72.9,54.981 72.9,52.881C72.9,50.83 71.387,49.463 69.238,49.463L30.469,49.463C28.272,49.463 26.758,50.83 26.758,52.881C26.758,54.981 28.272,56.348 30.469,56.348ZM37.988,72.559L61.67,72.559C63.818,72.559 65.381,71.143 65.381,69.092C65.381,67.041 63.818,65.674 61.67,65.674L37.988,65.674C35.84,65.674 34.326,67.041 34.326,69.092C34.326,71.143 35.84,72.559 37.988,72.559Z" style="fill:white;fill-opacity:0.85;fill-rule:nonzero;"/>
    </g>
</svg>
