<?xml version="1.0" encoding="UTF-8" standalone="no"?>
<!DOCTYPE svg PUBLIC "-//W3C//DTD SVG 1.1//EN" "http://www.w3.org/Graphics/SVG/1.1/DTD/svg11.dtd">
<svg width="100%" height="100%" viewBox="0 0 103 103" version="1.1" xmlns="http://www.w3.org/2000/svg" xmlns:xlink="http://www.w3.org/1999/xlink" xml:space="preserve" xmlns:serif="http://www.serif.com/" style="fill-rule:evenodd;clip-rule:evenodd;stroke-linejoin:round;stroke-miterlimit:2;">
    <g>
        <rect x="0" y="0" width="102.051" height="102.1" style="fill-opacity:0;"/>
        <path d="M46.533,102.051L55.518,102.051C58.057,102.051 59.912,100.537 60.449,98.047L62.988,87.305C64.893,86.67 66.748,85.938 68.359,85.156L77.783,90.918C79.883,92.236 82.275,92.041 84.033,90.283L90.332,84.033C92.09,82.275 92.334,79.736 90.918,77.637L85.156,68.311C85.986,66.602 86.719,64.844 87.256,63.086L98.096,60.498C100.586,59.961 102.051,58.106 102.051,55.566L102.051,46.728C102.051,44.238 100.586,42.383 98.096,41.846L87.354,39.258C86.719,37.256 85.938,35.449 85.254,33.936L91.016,24.463C92.383,22.363 92.236,19.971 90.43,18.213L84.033,11.914C82.227,10.254 80.078,9.961 77.93,11.182L68.359,17.09C66.797,16.26 64.99,15.527 62.988,14.893L60.449,4.004C59.912,1.514 58.057,0 55.518,0L46.533,0C43.994,0 42.139,1.514 41.553,4.004L39.014,14.795C37.109,15.43 35.254,16.162 33.594,17.041L24.121,11.182C21.973,9.961 19.775,10.205 17.969,11.914L11.621,18.213C9.814,19.971 9.619,22.363 11.035,24.463L16.748,33.936C16.113,35.449 15.332,37.256 14.697,39.258L3.955,41.846C1.465,42.383 0,44.238 0,46.728L0,55.566C0,58.106 1.465,59.961 3.955,60.498L14.795,63.086C15.332,64.844 16.064,66.602 16.846,68.311L11.133,77.637C9.668,79.736 9.961,82.275 11.719,84.033L17.969,90.283C19.727,92.041 22.168,92.236 24.268,90.918L33.643,85.156C35.303,85.938 37.109,86.67 39.014,87.305L41.553,98.047C42.139,100.537 43.994,102.051 46.533,102.051ZM51.025,68.262C41.553,68.262 33.789,60.449 33.789,50.977C33.789,41.553 41.553,33.789 51.025,33.789C60.498,33.789 68.262,41.553 68.262,50.977C68.262,60.449 60.498,68.262 51.025,68.262Z" style="fill:white;fill-opacity:0.85;fill-rule:nonzero;"/>
    </g>
</svg>
