<?xml version="1.0" encoding="UTF-8" standalone="no"?>
<!DOCTYPE svg PUBLIC "-//W3C//DTD SVG 1.1//EN" "http://www.w3.org/Graphics/SVG/1.1/DTD/svg11.dtd">
<svg width="100%" height="100%" viewBox="0 0 106 90" version="1.1" xmlns="http://www.w3.org/2000/svg" xmlns:xlink="http://www.w3.org/1999/xlink" xml:space="preserve" xmlns:serif="http://www.serif.com/" style="fill-rule:evenodd;clip-rule:evenodd;stroke-linejoin:round;stroke-miterlimit:2;">
    <g>
        <rect x="0" y="0" width="105.225" height="89.99" style="fill-opacity:0;"/>
        <path d="M9.326,41.016L20.361,41.016C26.563,41.016 29.688,37.891 29.688,31.445L29.688,9.619C29.688,3.174 26.563,0.098 20.361,0.098L9.326,0.098C3.125,0.098 0,3.174 0,9.619L0,31.445C0,37.891 3.125,41.016 9.326,41.016ZM47.119,41.016L58.154,41.016C64.356,41.016 67.481,37.891 67.481,31.445L67.481,9.619C67.481,3.174 64.356,0.098 58.154,0.098L47.119,0.098C40.918,0.098 37.793,3.174 37.793,9.619L37.793,31.445C37.793,37.891 40.918,41.016 47.119,41.016ZM84.912,41.016L95.898,41.016C102.1,41.016 105.225,37.891 105.225,31.445L105.225,9.619C105.225,3.174 102.1,0.098 95.898,0.098L84.912,0.098C78.662,0.098 75.537,3.174 75.537,9.619L75.537,31.445C75.537,37.891 78.662,41.016 84.912,41.016ZM9.326,89.99L20.361,89.99C26.563,89.99 29.688,86.914 29.688,80.469L29.688,58.594C29.688,52.197 26.563,49.072 20.361,49.072L9.326,49.072C3.125,49.072 0,52.197 0,58.594L0,80.469C0,86.914 3.125,89.99 9.326,89.99ZM47.119,89.99L58.154,89.99C64.356,89.99 67.481,86.914 67.481,80.469L67.481,58.594C67.481,52.197 64.356,49.072 58.154,49.072L47.119,49.072C40.918,49.072 37.793,52.197 37.793,58.594L37.793,80.469C37.793,86.914 40.918,89.99 47.119,89.99ZM84.912,89.99L95.898,89.99C102.1,89.99 105.225,86.914 105.225,80.469L105.225,58.594C105.225,52.197 102.1,49.072 95.898,49.072L84.912,49.072C78.662,49.072 75.537,52.197 75.537,58.594L75.537,80.469C75.537,86.914 78.662,89.99 84.912,89.99Z" style="fill:white;fill-opacity:0.85;fill-rule:nonzero;"/>
    </g>
</svg>
