<?xml version="1.0" encoding="UTF-8" standalone="no"?>
<!DOCTYPE svg PUBLIC "-//W3C//DTD SVG 1.1//EN" "http://www.w3.org/Graphics/SVG/1.1/DTD/svg11.dtd">
<svg width="100%" height="100%" viewBox="0 0 116 90" version="1.1" xmlns="http://www.w3.org/2000/svg" xmlns:xlink="http://www.w3.org/1999/xlink" xml:space="preserve" xmlns:serif="http://www.serif.com/" style="fill-rule:evenodd;clip-rule:evenodd;stroke-linejoin:round;stroke-miterlimit:2;">
    <g>
        <rect x="0" y="0" width="115.137" height="89.893" style="fill-opacity:0;"/>
        <path d="M110.107,72.168L81.104,44.922C78.906,42.969 76.367,41.895 73.731,41.895C71.045,41.895 68.652,42.822 66.406,44.824L44.336,64.551L35.303,56.397C33.252,54.541 31.006,53.613 28.711,53.613C26.514,53.613 24.463,54.492 22.412,56.348L3.809,73.144C4.102,81.982 7.715,86.475 14.99,86.475L96.826,86.475C105.664,86.475 110.107,81.543 110.107,72.168ZM36.377,45.41C42.676,45.41 47.852,40.234 47.852,33.887C47.852,27.588 42.676,22.363 36.377,22.363C30.029,22.363 24.854,27.588 24.854,33.887C24.854,40.234 30.029,45.41 36.377,45.41ZM15.332,89.893L99.805,89.893C110.059,89.893 115.137,84.863 115.137,74.805L115.137,15.137C115.137,5.078 110.059,0 99.805,0L15.332,0C5.127,0 0,5.078 0,15.137L0,74.805C0,84.863 5.127,89.893 15.332,89.893ZM15.43,82.031C10.547,82.031 7.861,79.443 7.861,74.365L7.861,15.576C7.861,10.498 10.547,7.861 15.43,7.861L99.707,7.861C104.541,7.861 107.275,10.498 107.275,15.576L107.275,74.365C107.275,79.443 104.541,82.031 99.707,82.031L15.43,82.031Z" style="fill:white;fill-opacity:0.85;fill-rule:nonzero;"/>
    </g>
</svg>
