<?xml version="1.0" encoding="UTF-8" standalone="no"?>
<!DOCTYPE svg PUBLIC "-//W3C//DTD SVG 1.1//EN" "http://www.w3.org/Graphics/SVG/1.1/DTD/svg11.dtd">
<svg width="100%" height="100%" viewBox="0 0 100 100" version="1.1" xmlns="http://www.w3.org/2000/svg" xmlns:xlink="http://www.w3.org/1999/xlink" xml:space="preserve" xmlns:serif="http://www.serif.com/" style="fill-rule:evenodd;clip-rule:evenodd;stroke-linejoin:round;stroke-miterlimit:2;">
    <g>
        <rect x="0" y="0" width="99.609" height="99.658" style="fill-opacity:0;"/>
        <path d="M49.805,99.609C77.051,99.609 99.609,77.002 99.609,49.805C99.609,22.559 77.002,0 49.756,0C22.559,0 0,22.559 0,49.805C0,77.002 22.607,99.609 49.805,99.609ZM41.016,78.076C38.916,78.076 37.305,76.563 37.305,74.463C37.305,72.51 38.916,70.898 41.016,70.898L47.217,70.898L47.217,47.949L41.846,47.949C39.795,47.949 38.184,46.436 38.184,44.336C38.184,42.383 39.795,40.772 41.846,40.772L51.318,40.772C53.906,40.772 55.273,42.627 55.273,45.361L55.273,70.898L61.475,70.898C63.574,70.898 65.186,72.51 65.186,74.463C65.186,76.563 63.574,78.076 61.475,78.076L41.016,78.076ZM49.365,32.471C45.703,32.471 42.773,29.541 42.773,25.83C42.773,22.119 45.703,19.19 49.365,19.19C53.027,19.19 55.908,22.119 55.908,25.83C55.908,29.541 53.027,32.471 49.365,32.471Z" style="fill:white;fill-opacity:0.85;fill-rule:nonzero;"/>
    </g>
</svg>
