<?xml version="1.0" encoding="UTF-8" standalone="no"?>
<!DOCTYPE svg PUBLIC "-//W3C//DTD SVG 1.1//EN" "http://www.w3.org/Graphics/SVG/1.1/DTD/svg11.dtd">
<svg width="100%" height="100%" viewBox="0 0 99 69" version="1.1" xmlns="http://www.w3.org/2000/svg" xmlns:xlink="http://www.w3.org/1999/xlink" xml:space="preserve" xmlns:serif="http://www.serif.com/" style="fill-rule:evenodd;clip-rule:evenodd;stroke-linejoin:round;stroke-miterlimit:2;">
    <g>
        <rect x="0" y="0" width="98.389" height="68.799" style="fill-opacity:0;"/>
        <path d="M32.617,8.838L94.434,8.838C96.631,8.838 98.389,7.129 98.389,4.932C98.389,2.686 96.631,0.977 94.434,0.977L32.617,0.977C30.371,0.977 28.662,2.686 28.662,4.932C28.662,7.129 30.371,8.838 32.617,8.838ZM32.617,38.379L94.434,38.379C96.631,38.379 98.389,36.621 98.389,34.424C98.389,32.227 96.631,30.518 94.434,30.518L32.617,30.518C30.371,30.518 28.662,32.227 28.662,34.424C28.662,36.621 30.371,38.379 32.617,38.379ZM32.617,67.871L94.434,67.871C96.631,67.871 98.389,66.162 98.389,63.965C98.389,61.719 96.631,60.01 94.434,60.01L32.617,60.01C30.371,60.01 28.662,61.719 28.662,63.965C28.662,66.162 30.371,67.871 32.617,67.871ZM4.834,9.766L13.184,9.766C15.869,9.766 18.066,7.568 18.066,4.932C18.066,2.197 15.869,0.049 13.184,0.049L4.834,0.049C2.148,0.049 0,2.197 0,4.932C0,7.568 2.148,9.766 4.834,9.766ZM4.834,39.307L13.184,39.307C15.869,39.307 18.066,37.109 18.066,34.424C18.066,31.738 15.869,29.59 13.184,29.59L4.834,29.59C2.148,29.59 0,31.738 0,34.424C0,37.109 2.148,39.307 4.834,39.307ZM4.834,68.799L13.184,68.799C15.869,68.799 18.066,66.602 18.066,63.965C18.066,61.231 15.869,59.082 13.184,59.082L4.834,59.082C2.148,59.082 0,61.231 0,63.965C0,66.602 2.148,68.799 4.834,68.799Z" style="fill:white;fill-opacity:0.85;fill-rule:nonzero;"/>
    </g>
</svg>
