<?xml version="1.0" encoding="UTF-8" standalone="no"?>
<!DOCTYPE svg PUBLIC "-//W3C//DTD SVG 1.1//EN" "http://www.w3.org/Graphics/SVG/1.1/DTD/svg11.dtd">
<svg width="100%" height="100%" viewBox="0 0 116 90" version="1.1" xmlns="http://www.w3.org/2000/svg" xmlns:xlink="http://www.w3.org/1999/xlink" xml:space="preserve" xmlns:serif="http://www.serif.com/" style="fill-rule:evenodd;clip-rule:evenodd;stroke-linejoin:round;stroke-miterlimit:2;">
    <g>
        <rect x="0" y="0" width="115.137" height="89.893" style="fill-opacity:0;"/>
        <path d="M85.466,61.481L70.065,47.013C68.899,45.976 67.55,45.406 66.15,45.406C64.724,45.406 63.454,45.899 62.261,46.962L50.542,57.436L45.746,53.106C44.657,52.121 43.464,51.629 42.245,51.629C41.079,51.629 39.99,52.095 38.901,53.08L29.022,61.999C29.178,66.692 31.097,69.078 34.96,69.078L78.414,69.078C83.107,69.078 85.466,66.459 85.466,61.481ZM46.316,47.273C49.661,47.273 52.409,44.524 52.409,41.154C52.409,37.809 49.661,35.035 46.316,35.035C42.945,35.035 40.197,37.809 40.197,41.154C40.197,44.524 42.945,47.273 46.316,47.273ZM35.141,70.893L79.996,70.893C85.441,70.893 88.137,68.222 88.137,62.881L88.137,31.198C88.137,25.857 85.441,23.16 79.996,23.16L35.141,23.16C29.722,23.16 27,25.857 27,31.198L27,62.881C27,68.222 29.722,70.893 35.141,70.893ZM35.193,66.718C32.6,66.718 31.174,65.344 31.174,62.648L31.174,31.431C31.174,28.735 32.6,27.335 35.193,27.335L79.944,27.335C82.511,27.335 83.962,28.735 83.962,31.431L83.962,62.648C83.962,65.344 82.511,66.718 79.944,66.718L35.193,66.718Z" style="fill:white;fill-opacity:0.85;fill-rule:nonzero;"/>
    </g>
    <g transform="matrix(1,0,0,1,7.7638,-4.8828)">
        <g transform="matrix(1,-0,-0,1,-7.7638,4.8828)">
        </g>
        <path d="M76.468,81.697L81.482,76.722L22.84,18.16L17.856,23.22L22.84,28.065L76.468,81.697ZM49.805,99.609C77.051,99.609 99.609,77.002 99.609,49.805C99.609,22.559 77.002,0 49.756,0C22.559,0 0,22.559 0,49.805C0,77.002 22.607,99.609 49.805,99.609ZM49.805,91.309C26.758,91.309 8.35,72.852 8.35,49.805C8.35,26.758 26.709,8.301 49.756,8.301C72.803,8.301 91.309,26.758 91.309,49.805C91.309,72.852 72.852,91.309 49.805,91.309Z" style="fill:rgb(179,77,77);fill-rule:nonzero;stroke:black;stroke-width:1px;"/>
    </g>
</svg>
