<?xml version="1.0" encoding="UTF-8" standalone="no"?>
<!DOCTYPE svg PUBLIC "-//W3C//DTD SVG 1.1//EN" "http://www.w3.org/Graphics/SVG/1.1/DTD/svg11.dtd">
<svg width="100%" height="100%" viewBox="0 0 98 90" version="1.1" xmlns="http://www.w3.org/2000/svg" xmlns:xlink="http://www.w3.org/1999/xlink" xml:space="preserve" xmlns:serif="http://www.serif.com/" style="fill-rule:evenodd;clip-rule:evenodd;stroke-linejoin:round;stroke-miterlimit:2;">
    <g>
        <rect x="0" y="0" width="97.315" height="89.99" style="fill-opacity:0;"/>
        <path d="M15.332,89.99L82.031,89.99C92.236,89.99 97.315,84.912 97.315,74.854L97.315,15.234C97.315,5.176 92.236,0.098 82.031,0.098L15.332,0.098C5.127,0.098 0,5.127 0,15.234L0,74.854C0,84.961 5.127,89.99 15.332,89.99ZM14.6,82.129C10.254,82.129 7.861,79.834 7.861,75.293L7.861,29.248C7.861,24.756 10.254,22.412 14.6,22.412L82.666,22.412C87.012,22.412 89.453,24.756 89.453,29.248L89.453,75.293C89.453,79.834 87.012,82.129 82.666,82.129L14.6,82.129ZM23.096,40.576L74.365,40.576C76.074,40.576 77.393,39.209 77.393,37.5C77.393,35.84 76.074,34.57 74.365,34.57L23.096,34.57C21.289,34.57 20.02,35.84 20.02,37.5C20.02,39.209 21.289,40.576 23.096,40.576ZM23.096,55.273L74.365,55.273C76.074,55.273 77.393,54.004 77.393,52.344C77.393,50.586 76.074,49.268 74.365,49.268L23.096,49.268C21.289,49.268 20.02,50.586 20.02,52.344C20.02,54.004 21.289,55.273 23.096,55.273ZM23.096,69.971L55.664,69.971C57.373,69.971 58.691,68.701 58.691,67.041C58.691,65.332 57.373,63.965 55.664,63.965L23.096,63.965C21.289,63.965 20.02,65.332 20.02,67.041C20.02,68.701 21.289,69.971 23.096,69.971Z" style="fill:white;fill-opacity:0.85;fill-rule:nonzero;"/>
    </g>
</svg>
