<?xml version="1.0" encoding="UTF-8" standalone="no"?>
<!DOCTYPE svg PUBLIC "-//W3C//DTD SVG 1.1//EN" "http://www.w3.org/Graphics/SVG/1.1/DTD/svg11.dtd">
<svg width="100%" height="100%" viewBox="0 0 96 96" version="1.1" xmlns="http://www.w3.org/2000/svg" xmlns:xlink="http://www.w3.org/1999/xlink" xml:space="preserve" xmlns:serif="http://www.serif.com/" style="fill-rule:evenodd;clip-rule:evenodd;stroke-linejoin:round;stroke-miterlimit:2;">
    <g>
        <rect x="0" y="0" width="95.606" height="95.654" style="fill-opacity:0;"/>
        <path d="M21.68,29.102C21.68,30.908 23.145,32.373 25,32.373L70.606,32.373C72.412,32.373 73.926,30.908 73.926,29.102C73.926,27.295 72.412,25.781 70.606,25.781L25,25.781C23.145,25.781 21.68,27.295 21.68,29.102ZM21.68,47.852C21.68,49.658 23.145,51.123 25,51.123L70.606,51.123C72.412,51.123 73.926,49.658 73.926,47.852C73.926,46.045 72.412,44.531 70.606,44.531L25,44.531C23.145,44.531 21.68,46.045 21.68,47.852ZM21.68,66.602C21.68,68.408 23.145,69.922 25,69.922L54.981,69.922C56.787,69.922 58.301,68.408 58.301,66.602C58.301,64.795 56.787,63.33 54.981,63.33L25,63.33C23.145,63.33 21.68,64.795 21.68,66.602ZM3.906,31.152C6.494,31.152 7.861,29.688 7.861,27.148L7.861,15.625C7.861,10.547 10.547,7.959 15.43,7.959L27.246,7.959C29.834,7.959 31.25,6.543 31.25,4.004C31.25,1.465 29.834,0.098 27.246,0.098L15.332,0.098C5.127,0.098 0,5.127 0,15.185L0,27.148C0,29.688 1.416,31.152 3.906,31.152ZM91.65,31.152C94.238,31.152 95.606,29.688 95.606,27.148L95.606,15.185C95.606,5.127 90.479,0.098 80.273,0.098L68.311,0.098C65.772,0.098 64.356,1.465 64.356,4.004C64.356,6.543 65.772,7.959 68.311,7.959L80.127,7.959C84.961,7.959 87.744,10.547 87.744,15.625L87.744,27.148C87.744,29.688 89.16,31.152 91.65,31.152ZM15.332,95.654L27.246,95.654C29.834,95.654 31.25,94.238 31.25,91.748C31.25,89.209 29.834,87.793 27.246,87.793L15.43,87.793C10.547,87.793 7.861,85.205 7.861,80.127L7.861,68.604C7.861,66.016 6.445,64.6 3.906,64.6C1.367,64.6 0,66.016 0,68.604L0,80.518C0,90.625 5.127,95.654 15.332,95.654ZM68.311,95.654L80.273,95.654C90.479,95.654 95.606,90.576 95.606,80.518L95.606,68.604C95.606,66.016 94.19,64.6 91.65,64.6C89.111,64.6 87.744,66.016 87.744,68.604L87.744,80.127C87.744,85.205 84.961,87.793 80.127,87.793L68.311,87.793C65.772,87.793 64.356,89.209 64.356,91.748C64.356,94.238 65.772,95.654 68.311,95.654Z" style="fill:white;fill-opacity:0.85;fill-rule:nonzero;"/>
    </g>
</svg>
