<?xml version="1.0" encoding="UTF-8" standalone="no"?>
<!DOCTYPE svg PUBLIC "-//W3C//DTD SVG 1.1//EN" "http://www.w3.org/Graphics/SVG/1.1/DTD/svg11.dtd">
<svg width="100%" height="100%" viewBox="0 0 111 111" version="1.1" xmlns="http://www.w3.org/2000/svg" xmlns:xlink="http://www.w3.org/1999/xlink" xml:space="preserve" xmlns:serif="http://www.serif.com/" style="fill-rule:evenodd;clip-rule:evenodd;stroke-linejoin:round;stroke-miterlimit:2;">
    <g>
        <rect x="0" y="0" width="110.107" height="110.205" style="fill-opacity:0;"/>
        <path d="M55.029,0.098C53.418,0.098 52.148,1.416 52.148,3.027L52.148,21.143C52.148,22.803 53.418,24.072 55.029,24.072C56.69,24.072 57.959,22.803 57.959,21.143L57.959,3.027C57.959,1.416 56.69,0.098 55.029,0.098ZM69.482,1.563C67.92,1.025 66.406,1.807 65.918,3.613L64.258,9.619C63.818,11.182 64.697,12.793 66.26,13.184C67.822,13.574 69.385,12.744 69.824,11.133L71.436,5.127C71.875,3.467 71.045,2.002 69.482,1.563ZM82.617,7.471C81.201,6.689 79.443,7.129 78.613,8.496L69.58,24.268C68.701,25.684 69.19,27.441 70.606,28.223C71.973,29.053 73.779,28.613 74.561,27.148L83.643,11.426C84.424,10.01 83.984,8.301 82.617,7.471ZM94.385,15.918C93.213,14.746 91.357,14.844 90.283,15.918L85.84,20.313C84.619,21.582 84.619,23.242 85.84,24.414C87.012,25.635 88.769,25.635 89.893,24.463L94.238,20.068C95.459,18.799 95.508,17.09 94.385,15.918ZM102.783,27.637C101.953,26.221 100.195,25.781 98.779,26.563L83.057,35.645C81.592,36.475 81.152,38.232 81.982,39.648C82.764,41.016 84.522,41.504 85.938,40.674L101.709,31.592C103.076,30.762 103.516,29.053 102.783,27.637ZM108.74,40.82C108.35,39.209 106.689,38.281 105.225,38.721L99.121,40.381C97.559,40.82 96.631,42.334 97.168,44.141C97.559,45.41 98.926,46.436 100.684,45.996L106.592,44.336C108.301,43.897 109.131,42.334 108.74,40.82ZM110.107,55.127C110.107,53.516 108.838,52.246 107.178,52.246L89.063,52.246C87.402,52.246 86.133,53.516 86.133,55.127C86.133,56.787 87.402,58.057 89.063,58.057L107.178,58.057C108.838,58.057 110.107,56.787 110.107,55.127ZM108.74,69.678C109.18,68.018 108.447,66.504 106.738,66.016L100.684,64.307C99.023,63.867 97.51,64.795 97.119,66.357C96.729,67.969 97.607,69.629 99.121,70.019L105.127,71.582C106.836,72.022 108.301,71.143 108.74,69.678ZM102.734,82.666C103.516,81.299 103.076,79.541 101.709,78.711L85.938,69.629C84.522,68.799 82.764,69.287 81.982,70.654C81.152,72.07 81.592,73.828 83.057,74.658L98.779,83.74C100.195,84.522 101.904,84.082 102.734,82.666ZM94.336,94.482C95.557,93.262 95.459,91.406 94.434,90.332L89.941,85.938C88.769,84.815 87.012,84.668 85.742,85.938C84.619,87.158 84.717,88.818 85.84,89.99L90.234,94.385C91.455,95.606 93.164,95.654 94.336,94.482ZM82.568,102.832C83.984,102.051 84.424,100.293 83.643,98.877L74.561,83.154C73.779,81.69 71.973,81.25 70.606,82.031C69.19,82.861 68.701,84.619 69.58,86.035L78.613,101.758C79.443,103.174 81.152,103.613 82.568,102.832ZM69.482,108.887C71.338,108.447 71.875,106.836 71.484,105.322L69.922,99.17C69.482,97.607 67.822,96.729 66.26,97.168C64.551,97.656 63.818,99.268 64.258,100.732L66.016,106.689C66.504,108.301 67.725,109.229 69.482,108.887ZM55.029,110.205C56.69,110.205 57.959,108.887 57.959,107.275L57.959,89.16C57.959,87.5 56.69,86.231 55.029,86.231C53.418,86.231 52.148,87.5 52.148,89.16L52.148,107.275C52.148,108.887 53.418,110.205 55.029,110.205ZM40.381,108.838C42.188,109.424 43.799,108.35 44.19,106.836L45.85,100.83C46.289,99.268 45.41,97.656 43.848,97.266C42.285,96.875 40.723,97.705 40.283,99.316L38.672,105.322C38.232,106.982 38.77,108.35 40.381,108.838ZM27.539,102.832C28.906,103.613 30.713,103.174 31.494,101.758L40.576,86.035C41.406,84.619 40.918,82.861 39.551,82.031C38.135,81.25 36.377,81.69 35.547,83.154L26.514,98.877C25.684,100.293 26.123,102.002 27.539,102.832ZM15.772,94.434C16.992,95.606 18.75,95.606 19.824,94.531L24.268,90.137C25.488,88.867 25.537,87.207 24.316,86.035C23.193,84.863 21.338,84.815 20.215,85.986L15.869,90.381C14.648,91.65 14.6,93.262 15.772,94.434ZM7.373,82.666C8.154,84.082 9.912,84.522 11.328,83.74L27.051,74.658C28.516,73.828 28.955,72.07 28.174,70.703C27.344,69.287 25.635,68.799 24.17,69.629L8.447,78.711C7.031,79.541 6.592,81.25 7.373,82.666ZM1.367,69.531C1.758,71.094 3.418,71.924 4.932,71.582L10.986,70.068C12.647,69.629 13.477,68.115 13.037,66.504C12.598,64.941 11.035,64.014 9.424,64.404L3.564,66.016C1.758,66.504 0.977,68.018 1.367,69.531ZM0,55.127C0,56.787 1.318,58.057 2.93,58.057L21.045,58.057C22.754,58.057 23.975,56.787 23.975,55.127C23.975,53.516 22.754,52.246 21.045,52.246L2.93,52.246C1.318,52.246 0,53.516 0,55.127ZM1.318,40.772C0.977,42.334 1.953,43.897 3.418,44.336L9.424,46.045C11.084,46.436 12.647,45.557 12.988,43.945C13.33,42.383 12.598,40.723 10.986,40.332L4.98,38.818C3.223,38.379 1.66,39.258 1.318,40.772ZM7.422,27.588C6.592,29.004 7.031,30.762 8.447,31.592L24.17,40.674C25.635,41.504 27.344,41.016 28.174,39.648C28.955,38.232 28.516,36.475 27.051,35.645L11.328,26.563C9.912,25.781 8.203,26.221 7.422,27.588ZM15.723,15.869C14.551,16.992 14.697,18.848 15.772,19.971L20.117,24.365C21.338,25.586 22.998,25.635 24.268,24.414C25.391,23.291 25.44,21.533 24.219,20.264L19.873,15.918C18.604,14.648 16.943,14.697 15.723,15.869ZM27.539,7.422C26.123,8.252 25.684,10.01 26.514,11.426L35.547,27.148C36.377,28.613 38.135,29.053 39.502,28.223C40.918,27.441 41.406,25.684 40.576,24.268L31.494,8.496C30.664,7.129 28.955,6.689 27.539,7.422ZM40.625,1.416C39.014,1.758 38.135,3.174 38.623,5.029L40.234,11.182C40.674,12.695 42.188,13.525 43.994,12.988C45.703,12.451 46.387,11.084 45.898,9.521L44.19,3.613C43.701,1.855 42.285,1.123 40.625,1.416Z" style="fill:white;fill-opacity:0.85;fill-rule:nonzero;"/>
    </g>
</svg>
