<?xml version="1.0" encoding="UTF-8" standalone="no"?>
<!DOCTYPE svg PUBLIC "-//W3C//DTD SVG 1.1//EN" "http://www.w3.org/Graphics/SVG/1.1/DTD/svg11.dtd">
<svg width="100%" height="100%" viewBox="0 0 95 119" version="1.1" xmlns="http://www.w3.org/2000/svg" xmlns:xlink="http://www.w3.org/1999/xlink" xml:space="preserve" xmlns:serif="http://www.serif.com/" style="fill-rule:evenodd;clip-rule:evenodd;stroke-linejoin:round;stroke-miterlimit:2;">
    <g>
        <rect x="0" y="0" width="94.58" height="118.506" style="fill-opacity:0;"/>
        <path d="M25.342,20.947L34.18,20.947L34.18,12.402C34.18,9.961 35.889,8.301 38.525,8.301L56.006,8.301C58.643,8.301 60.352,9.961 60.352,12.402L60.352,20.947L69.141,20.947L69.141,11.914C69.141,4.541 64.307,0 56.494,0L37.988,0C30.176,0 25.342,4.541 25.342,11.914L25.342,20.947ZM3.662,26.758L90.918,26.758C92.92,26.758 94.58,25.049 94.58,23.047C94.58,21.045 92.92,19.385 90.918,19.385L3.662,19.385C1.709,19.385 0,21.045 0,23.047C0,25.098 1.709,26.758 3.662,26.758ZM83.643,25.732L10.986,25.732L14.16,98.096C14.404,104.15 18.066,107.52 24.072,107.52L70.508,107.52C76.563,107.52 80.225,104.15 80.469,98.096L83.643,25.732ZM31.836,93.555C30.078,93.555 28.857,92.432 28.809,90.674L27.295,37.5C27.246,35.791 28.467,34.619 30.371,34.619C32.08,34.619 33.35,35.742 33.398,37.451L34.863,90.674C34.912,92.383 33.691,93.555 31.836,93.555ZM47.315,93.555C45.459,93.555 44.141,92.383 44.141,90.674L44.141,37.5C44.141,35.791 45.459,34.619 47.315,34.619C49.17,34.619 50.44,35.791 50.44,37.5L50.44,90.674C50.44,92.383 49.17,93.555 47.315,93.555ZM62.744,93.555C60.889,93.555 59.668,92.383 59.717,90.674L61.182,37.5C61.231,35.742 62.5,34.619 64.209,34.619C66.065,34.619 67.334,35.791 67.285,37.5L65.772,90.674C65.723,92.432 64.502,93.555 62.744,93.555Z" style="fill:white;fill-opacity:0.85;fill-rule:nonzero;"/>
    </g>
</svg>
